<svg width="97" height="90" viewBox="0 0 97 90" fill="none" xmlns="http://www.w3.org/2000/svg">
<path fill-rule="evenodd" clip-rule="evenodd" d="M57.6476 62.9925C56.027 62.9925 54.4636 62.4842 53.245 61.5612C51.982 60.6044 51.191 59.2882 51.0179 57.8548C50.9791 57.5323 51.08 57.2086 51.2955 56.9653C51.511 56.7222 51.8204 56.583 52.1453 56.583H63.1494C63.4743 56.583 63.7837 56.7222 63.9992 56.9653C64.2147 57.2084 64.3156 57.5323 64.2768 57.8548C64.1037 59.2882 63.3129 60.6044 62.0497 61.5612C60.8317 62.484 59.2681 62.9925 57.6476 62.9925ZM53.7568 58.8542C54.5009 59.9634 55.9866 60.7213 57.6476 60.7213C59.3087 60.7213 60.7946 59.9634 61.5385 58.8542H53.7568Z" fill="#FDD43F"/>
<path fill-rule="evenodd" clip-rule="evenodd" d="M63.9771 58.8544H51.3184C50.0444 58.8544 49.0079 57.8552 49.0079 56.6274V53.6482C49.0079 53.3396 49.1335 53.0445 49.3557 52.8304C49.5777 52.6164 49.8772 52.5011 50.1859 52.5133H65.1111C65.4195 52.5013 65.7184 52.6162 65.9405 52.8304C66.1625 53.0443 66.2875 53.3396 66.2875 53.6482V56.6274C66.2875 57.8552 65.2511 58.8544 63.9771 58.8544ZM51.279 56.5763C51.2882 56.5798 51.3012 56.5832 51.3182 56.5832H63.9769C63.994 56.5832 64.0069 56.58 64.0161 56.5763V54.7845H51.279V56.5763Z" fill="#FDD43F"/>
<path fill-rule="evenodd" clip-rule="evenodd" d="M64.6598 50.7143H50.6352C50.07 50.7143 49.5907 50.2985 49.511 49.739C49.0832 46.7369 47.7999 45.3998 46.3142 43.8518C44.3259 41.7801 42.0724 39.432 42.0724 33.0861C42.0724 28.9258 43.6924 25.0144 46.6343 22.0727C49.5761 19.1308 53.4874 17.5107 57.6476 17.5107C61.8079 17.5107 65.7193 19.131 68.661 22.0727C71.6028 25.0144 73.223 28.9258 73.223 33.0859C73.223 39.432 70.9695 41.7799 68.981 43.8516C67.4953 45.3996 66.212 46.7367 65.7842 49.739C65.7043 50.2985 65.2252 50.7143 64.6598 50.7143ZM51.5847 48.4433H63.7107C64.3834 45.3626 65.9474 43.7325 67.3425 42.2791C69.1987 40.345 70.9518 38.5183 70.9518 33.0859C70.9518 25.75 64.9835 19.782 57.6478 19.782C50.3119 19.782 44.3438 25.7502 44.3438 33.0859C44.3438 38.5183 46.0969 40.345 47.9531 42.2791C49.3478 43.7325 50.912 45.3624 51.5847 48.4433Z" fill="#FDD43F"/>
<path fill-rule="evenodd" clip-rule="evenodd" d="M65.3087 54.7844H49.9864C48.8216 54.7844 47.8741 53.8369 47.8741 52.6719V50.5557C47.8741 49.3909 48.8216 48.4434 49.9864 48.4434H65.3087C66.4734 48.4434 67.4212 49.3909 67.4212 50.5557V52.6719C67.4212 53.8367 66.4734 54.7844 65.3087 54.7844ZM50.1451 52.5132H65.1499V50.7146H50.1451V52.5132Z" fill="#FDD43F"/>
<path fill-rule="evenodd" clip-rule="evenodd" d="M38.3537 26.4204C38.192 26.4204 38.0278 26.3857 37.8718 26.3124L31.0574 23.1122C30.4898 22.8456 30.2457 22.1692 30.5122 21.6016C30.7788 21.034 31.4552 20.7899 32.0228 21.0564L38.8373 24.2568C39.4049 24.5234 39.649 25.1998 39.3824 25.7674C39.189 26.1791 38.7803 26.4204 38.3537 26.4204Z" fill="#FDD43F"/>
<path fill-rule="evenodd" clip-rule="evenodd" d="M31.541 40.3746C31.1143 40.3746 30.7056 40.1331 30.5124 39.7214C30.2459 39.1538 30.49 38.4774 31.0576 38.2108L37.872 35.0106C38.4398 34.7439 39.1161 34.9881 39.3826 35.5558C39.6492 36.1234 39.4051 36.7998 38.8375 37.0664L32.023 40.2666C31.8669 40.3397 31.7026 40.3746 31.541 40.3746Z" fill="#FDD43F"/>
<path fill-rule="evenodd" clip-rule="evenodd" d="M38.3545 31.7981C38.3543 31.7981 38.3543 31.7981 38.3541 31.7981L31.5396 31.7961C30.9125 31.7959 30.4042 31.2875 30.4044 30.6603C30.4046 30.0334 30.9129 29.5249 31.54 29.5249H31.5404L38.3549 29.5269C38.982 29.5271 39.4903 30.0355 39.4901 30.6627C39.4899 31.2898 38.9816 31.7981 38.3545 31.7981Z" fill="#FDD43F"/>
<path fill-rule="evenodd" clip-rule="evenodd" d="M76.9413 26.4202C76.5149 26.4202 76.1062 26.1787 75.9128 25.767C75.6462 25.1992 75.8903 24.523 76.4579 24.2564L83.2721 21.0562C83.8397 20.7897 84.5162 21.0335 84.7827 21.6014C85.0493 22.169 84.8052 22.8454 84.2376 23.112L77.4234 26.3122C77.2674 26.3855 77.1032 26.4202 76.9413 26.4202Z" fill="#FDD43F"/>
<path fill-rule="evenodd" clip-rule="evenodd" d="M83.7542 40.3746C83.5926 40.3746 83.4281 40.3399 83.2722 40.2665L76.4581 37.0663C75.8905 36.7997 75.6464 36.1233 75.913 35.5557C76.1798 34.9879 76.856 34.744 77.4236 35.0106L84.2377 38.2108C84.8055 38.4773 85.0493 39.1538 84.7828 39.7214C84.5896 40.1328 84.1809 40.3746 83.7542 40.3746Z" fill="#FDD43F"/>
<path fill-rule="evenodd" clip-rule="evenodd" d="M76.9409 31.7981C76.3138 31.7983 75.8053 31.2898 75.8051 30.6627C75.8049 30.0355 76.3132 29.5271 76.9403 29.5269L83.7546 29.5249C84.3817 29.5247 84.8904 30.033 84.8906 30.6603C84.8908 31.2875 84.3825 31.7961 83.7554 31.7961L76.9409 31.7981Z" fill="#FDD43F"/>
<path fill-rule="evenodd" clip-rule="evenodd" d="M50.3127 80.4622C47.2745 80.4622 44.3194 79.8684 41.3581 78.6697C37.8714 77.2583 34.9796 75.2621 32.4282 73.5009C29.1773 71.2567 26.6098 69.4839 24.5014 70.0868C23.8983 70.2591 23.2698 69.9101 23.0975 69.307C22.9252 68.7041 23.2741 68.0754 23.8772 67.9031C27.0171 67.0057 30.1227 69.1495 33.7184 71.6319C38.6206 75.0161 44.7216 79.2277 53.5005 77.9566C56.9895 77.4513 62.6666 76.4811 65.7546 75.7942C67.2195 75.4683 67.8837 74.9311 67.8922 74.5429C67.903 74.0415 67.0572 73.0849 65.4995 72.6672C62.552 71.8762 57.189 71.9454 53.4116 72.0662C52.7834 72.0871 52.2604 71.5942 52.2403 70.9675C52.2201 70.3407 52.7121 69.8163 53.339 69.7962C57.261 69.6708 62.8495 69.6044 66.0882 70.4736C68.5258 71.1276 70.2012 72.8211 70.163 74.5922C70.1504 75.1746 69.9441 76.0278 69.0335 76.7861C68.375 77.3346 67.4375 77.7468 66.2479 78.0114C63.1084 78.7097 57.3554 79.6933 53.826 80.2044C52.6399 80.3761 51.4702 80.4622 50.3127 80.4622Z" fill="#FDD43F"/>
<path fill-rule="evenodd" clip-rule="evenodd" d="M49.8592 74.1815C47.2637 74.1817 44.235 72.8058 40.8552 70.0903C38.3912 68.1107 36.6613 66.1478 36.5888 66.0652C36.1751 65.5936 36.2223 64.8762 36.6939 64.4626C37.1654 64.0489 37.8829 64.0961 38.2963 64.5677C38.3127 64.5862 39.9881 66.4846 42.3043 68.3412C45.2188 70.6773 47.8297 71.9103 49.8598 71.9103C49.8788 71.9103 49.8975 71.9101 49.9162 71.9099C51.1827 71.8955 52.0116 71.6132 52.1904 71.1355C52.4372 70.4758 51.7837 68.9522 50.4172 67.7353C49.5874 66.9962 48.3248 65.8087 46.8631 64.4338C44.056 61.7937 40.5626 58.5079 39.3282 57.6682C39.2979 57.6477 39.2687 57.6256 39.2405 57.602C39.1967 57.5657 34.6833 53.886 31.154 55.5664C27.5766 57.2694 25.0588 57.365 24.1422 57.3268C23.5157 57.3007 23.0287 56.7718 23.0547 56.145C23.0807 55.5185 23.6089 55.0317 24.2365 55.0575C24.8196 55.082 26.9716 55.0421 30.1779 53.5158C34.8499 51.2919 40.0766 55.356 40.6494 55.8203C42.059 56.7972 45.4361 59.9736 48.4194 62.7795C49.8088 64.0864 51.1212 65.3208 51.928 66.0394C53.6432 67.5672 55.0476 69.9815 54.3177 71.9316C53.9405 72.9394 52.8753 74.1478 49.942 74.1809C49.9146 74.1815 49.8868 74.1815 49.8592 74.1815Z" fill="#FDD43F"/>
<path fill-rule="evenodd" clip-rule="evenodd" d="M22.522 73.0662H15.0147C13.469 73.0662 12.2118 71.8088 12.2118 70.2633V54.6516C12.2118 53.1059 13.4692 51.8486 15.0147 51.8486H22.522C24.0677 51.8486 25.3249 53.1061 25.3249 54.6516V70.2633C25.3249 71.8089 24.0677 73.0662 22.522 73.0662ZM15.0147 54.1197C14.7214 54.1197 14.4828 54.3582 14.4828 54.6516V70.2633C14.4828 70.5566 14.7214 70.7952 15.0147 70.7952H22.522C22.8154 70.7952 23.0539 70.5566 23.0539 70.2633V54.6516C23.0539 54.3582 22.8154 54.1197 22.522 54.1197H15.0147Z" fill="#FDD43F"/>
<path fill-rule="evenodd" clip-rule="evenodd" d="M20.5814 69.3796C19.9543 69.3796 19.4458 68.8712 19.4458 68.244V64.5018C19.4458 63.8747 19.9543 63.3662 20.5814 63.3662C21.2086 63.3662 21.717 63.8747 21.717 64.5018V68.244C21.717 68.871 21.2086 69.3796 20.5814 69.3796Z" fill="#FDD43F"/>
<path fill-rule="evenodd" clip-rule="evenodd" d="M16.9553 69.3796C16.3282 69.3796 15.8197 68.8712 15.8197 68.244V64.5018C15.8197 63.8747 16.3282 63.3662 16.9553 63.3662C17.5825 63.3662 18.0909 63.8747 18.0909 64.5018V68.244C18.0909 68.871 17.5825 69.3796 16.9553 69.3796Z" fill="#FDD43F"/>
<path fill-rule="evenodd" clip-rule="evenodd" d="M59.4811 39.0109H55.8141C55.2181 39.0109 54.7234 38.5499 54.6814 37.9555L53.7351 24.5884C53.7128 24.2741 53.8222 23.9646 54.0371 23.7341C54.252 23.5035 54.5529 23.3726 54.8681 23.3726H60.4279C60.7431 23.3726 61.044 23.5035 61.2587 23.7341C61.4734 23.9646 61.5828 24.2741 61.5605 24.5884L60.6142 37.9555C60.5716 38.5499 60.0771 39.0109 59.4811 39.0109ZM56.872 36.7396H58.423L59.2087 25.6436H56.0865L56.872 36.7396Z" fill="#FDD43F"/>
<path fill-rule="evenodd" clip-rule="evenodd" d="M59.4811 45.5169H55.8141C55.1869 45.5169 54.6785 45.0084 54.6785 44.3813V40.7142C54.6785 40.0871 55.1869 39.5786 55.8141 39.5786H59.4811C60.1083 39.5786 60.6168 40.0871 60.6168 40.7142V44.3813C60.6168 45.0084 60.1083 45.5169 59.4811 45.5169ZM56.9497 43.2457H58.3455V41.8498H56.9497V43.2457Z" fill="#FDD43F"/>
</svg>
