<svg width="97" height="98" viewBox="0 0 97 98" fill="none" xmlns="http://www.w3.org/2000/svg">
<g clip-path="url(#clip0_143_1010)">
<path d="M60.1439 97.7149C58.9712 97.7149 57.797 97.6808 56.6828 97.6135C52.9718 97.3898 49.5561 95.7192 47.0656 92.9096C46.2941 92.0391 45.5113 91.1223 44.7543 90.2355C43.4281 88.6822 42.1752 87.2143 41.2168 86.2702C41.1829 86.2392 41.1497 86.2058 41.1213 86.1738C41.1198 86.1721 41.1181 86.1702 41.1166 86.1685C37.591 82.1689 29.5201 69.3585 28.7311 68.1022C26.7096 65.7019 26.7246 62.1881 28.7817 60.0575C29.921 58.8772 31.51 58.2251 33.1415 58.2668C34.7741 58.3088 36.3251 59.0392 37.3968 60.2704L40.7418 64.1133V33.7443C40.7418 30.5604 43.0791 27.8633 46.0626 27.604C47.6974 27.4621 49.3242 28.013 50.5269 29.116C51.7307 30.2196 52.421 31.7888 52.421 33.4211V49.6808C53.4824 48.9648 54.7826 48.5952 56.1436 48.6981C58.7672 48.8964 60.897 50.9573 61.4129 53.603C62.5377 52.8026 63.9258 52.4193 65.3226 52.5398C67.9092 52.7645 70.0101 54.8218 70.5233 57.4396C71.6486 56.6386 73.04 56.2555 74.4338 56.376C77.4175 56.6352 79.7546 59.3325 79.7546 62.5164V70.3418C79.7546 76.8438 77.9237 83.1873 74.4599 88.6892C74.362 88.8756 73.9857 89.5868 73.4617 90.5255C71.0649 94.8184 66.5643 97.5652 61.716 97.6939C61.1961 97.7081 60.6702 97.7149 60.1439 97.7149ZM43.0048 84.4268C44.0552 85.4615 45.3436 86.9708 46.7073 88.5679C47.4568 89.4458 48.2317 90.3535 48.9872 91.2061C51.0229 93.5022 53.8109 94.8674 56.8374 95.0499C58.3788 95.1429 60.042 95.1702 61.6478 95.1268C65.5947 95.022 69.2621 92.7793 71.2192 89.2738C71.8006 88.2324 72.2043 87.4604 72.2085 87.4528C72.2246 87.4217 72.2422 87.3912 72.261 87.3617C75.4832 82.2605 77.1864 76.3751 77.1864 70.3418V62.5164C77.1864 60.6528 75.8795 59.0795 74.2114 58.9346C73.2779 58.8529 72.3885 59.154 71.7049 59.7809C71.0303 60.3995 70.6434 61.2785 70.6434 62.1932C70.6434 62.9023 70.0684 63.4773 69.3593 63.4773C68.6502 63.4773 68.0752 62.9023 68.0752 62.1932V58.6802C68.0752 56.8165 66.7683 55.2433 65.1002 55.0984C64.169 55.0171 63.2773 55.3178 62.5937 55.9448C61.9191 56.5632 61.5322 57.4425 61.5322 58.3572C61.5322 59.0663 60.9572 59.6413 60.2481 59.6413C59.539 59.6413 58.964 59.0663 58.964 58.3572V54.8439C58.964 52.9928 57.6121 51.3847 55.95 51.2591C54.3529 51.1363 52.9127 52.1704 52.5211 53.7127C52.3527 54.3775 51.7131 54.8165 51.0369 54.7303C50.3619 54.646 49.8528 54.0674 49.8528 53.3842V33.4211C49.8528 32.5067 49.466 31.6274 48.7913 31.0088C48.1076 30.3819 47.2162 30.0817 46.2848 30.1625C44.6165 30.3075 43.3099 31.8809 43.3099 33.7443V67.345C43.3099 67.9081 42.9556 68.4194 42.4283 68.6172C41.9009 68.8146 41.2981 68.6628 40.9277 68.2386L35.4599 61.9568C34.8593 61.2668 33.9903 60.8579 33.0754 60.8342C32.1444 60.8053 31.2794 61.1681 30.6292 61.8416C29.466 63.0461 29.5133 65.0909 30.7368 66.4963C30.7808 66.5468 30.8207 66.6004 30.8562 66.6575C30.9426 66.7952 39.4886 80.4099 43.0048 84.4268Z" fill="#FDD43F"/>
<path d="M29.2815 53.9256L22.2347 46.8793L26.1953 41.2027C26.3686 40.9541 26.3912 40.5788 26.2485 40.3107C25.5958 39.0622 25.0932 37.863 24.7077 36.6361C24.6167 36.3442 24.3352 36.0965 24.0372 36.0439L17.2451 34.802V24.8336L24.0292 23.593C24.3352 23.539 24.6167 23.2914 24.7067 23.0025C25.1097 21.7208 25.6189 20.4875 26.2216 19.3335C26.361 19.067 26.3385 18.6957 26.1685 18.449L22.2126 12.7785L29.2805 5.71053L34.9995 9.63733C35.2396 9.80083 35.6075 9.82318 35.8704 9.6881C37.071 9.06177 38.3115 8.54513 39.5519 8.15524C39.8257 8.06695 40.0697 7.78921 40.1235 7.49745L41.3638 0.714844H51.3543L52.595 7.49878C52.6482 7.78902 52.8924 8.06676 53.1747 8.15789C54.4109 8.54646 55.6518 9.06328 56.8543 9.69132C57.1208 9.83076 57.4923 9.8084 57.739 9.63828L63.4118 5.70712L70.479 12.7741L66.5488 18.4715C66.3792 18.7176 66.3569 19.0893 66.4959 19.3548C67.0844 20.4848 67.5722 21.6763 67.9879 22.9993C68.0788 23.2914 68.3603 23.539 68.6583 23.5915L75.4726 24.8328V34.8247L68.6653 36.0647C68.3601 36.1185 68.0786 36.3663 67.9888 36.655C67.5881 37.9251 67.0931 39.1166 66.4738 40.302C66.3343 40.5682 66.3567 40.9399 66.5268 41.1868L69.8674 45.9748L67.7611 47.4442L64.4161 42.6499C63.6998 41.6102 63.6159 40.224 64.1979 39.1119C64.7461 38.0623 65.1847 37.0072 65.5382 35.887C65.9135 34.6813 66.9639 33.7572 68.2122 33.537L72.9044 32.6822V26.9755L68.2052 26.1194C66.9639 25.9004 65.9137 24.9762 65.5369 23.766C65.1677 22.5914 64.7363 21.5361 64.2193 20.5432C63.6384 19.4336 63.7225 18.0473 64.4345 17.0139L67.1499 13.077L63.1121 9.03941L59.1991 11.7512C58.1624 12.4653 56.7764 12.549 55.6645 11.9672C54.5967 11.4097 53.4968 10.9512 52.3961 10.6051C51.2042 10.2212 50.2943 9.1851 50.069 7.96237L49.2131 3.28288H43.5048L42.6493 7.96086C42.424 9.18491 41.5139 10.2212 40.3304 10.6022C39.2251 10.9497 38.1249 11.4081 37.0519 11.968C35.9451 12.5377 34.5729 12.4537 33.5496 11.7569L29.5869 9.036L25.5496 13.0733L28.2791 16.9855C28.9956 18.0252 29.0797 19.4116 28.4973 20.5235C27.9577 21.5568 27.5192 22.6188 27.1575 23.7694C26.7814 24.9766 25.7313 25.9007 24.4828 26.1207L19.8132 26.9746V32.6606L24.4909 33.516C25.7313 33.7346 26.7814 34.659 27.1584 35.869C27.497 36.9464 27.9428 38.0083 28.5199 39.1124C29.113 40.2276 29.0291 41.6276 28.3016 42.6715L25.5716 46.5843L29.5857 50.5982L33.4998 47.904C34.5325 47.1921 35.9191 47.1081 37.031 47.6903L35.8398 49.9655C35.5745 49.8266 35.2032 49.8491 34.9565 50.0191L29.2815 53.9256Z" fill="#FDD43F"/>
<path d="M36.065 40.5045C33.1446 37.6887 31.5361 33.8971 31.5361 29.8286C31.5361 25.8537 33.0737 22.127 35.8657 19.335C38.6575 16.543 42.3842 15.0056 46.3591 15.0056C50.3341 15.0056 54.0606 16.5432 56.8526 19.335C59.6445 22.127 61.1821 25.8537 61.1821 29.8286C61.1821 33.8971 59.5737 37.6885 56.6534 40.5045L54.8707 38.6556C57.2845 36.3282 58.6141 33.1933 58.6141 29.8286C58.6141 23.0712 53.1167 17.5737 46.3591 17.5737C39.6017 17.5737 34.1044 23.0712 34.1044 29.8286C34.1044 33.1933 35.4338 36.3282 37.8478 38.6556L36.065 40.5045Z" fill="#FDD43F"/>
</g>
<defs>
<clipPath id="clip0_143_1010">
<rect width="97" height="97" fill="white" transform="translate(0 0.714844)"/>
</clipPath>
</defs>
</svg>
