<svg width="89" height="66" viewBox="0 0 89 66" fill="none" xmlns="http://www.w3.org/2000/svg">
<path fill-rule="evenodd" clip-rule="evenodd" d="M52.5055 65.644C50.6606 65.644 48.8136 65.2919 47.0691 64.5837L26.4589 56.2073C24.001 55.2085 21.3358 54.9911 18.7484 55.5776L14.4498 56.5527C13.9132 56.6738 13.3799 56.338 13.257 55.8012C13.1359 55.2642 13.4716 54.7303 14.0082 54.6086L18.3072 53.6333C21.2942 52.9558 24.3714 53.2075 27.208 54.3606L47.8203 62.7364C51.0792 64.0607 54.7637 63.9417 57.9274 62.4106L84.3239 49.6463C85.0611 49.2911 85.6112 48.6705 85.8743 47.8978C86.1374 47.1242 86.0819 46.2952 85.7168 45.5632C85.1993 44.5276 84.1592 43.8848 83.0031 43.8848C82.7332 43.8847 82.4579 43.9227 82.1844 43.9977L60.0283 50.1708C59.4987 50.3188 58.9484 50.0086 58.7996 49.4782C58.6526 48.9477 58.9623 48.398 59.4919 48.2503L81.6534 42.0759C82.1016 41.9529 82.5548 41.8911 83.003 41.8911C84.9192 41.891 86.6427 42.9566 87.4993 44.6718C88.1054 45.8843 88.1985 47.259 87.7607 48.5415C87.3231 49.8231 86.4107 50.8534 85.1907 51.4418L58.7963 64.2052C56.8166 65.1627 54.6633 65.6443 52.5055 65.644Z" fill="#FDD43F"/>
<path fill-rule="evenodd" clip-rule="evenodd" d="M56.2156 54.1796C55.7694 54.1796 55.3156 54.1137 54.8657 53.9754L38.4624 48.9406C37.9363 48.779 37.6403 48.2216 37.8013 47.6953C37.9624 47.1688 38.5195 46.8733 39.0473 47.0347L55.4507 52.0694C56.7727 52.4756 58.1695 51.7733 58.6315 50.47C58.7337 50.1917 58.7821 49.9035 58.7821 49.6062C58.7824 49.5126 58.7768 49.4189 58.7665 49.3272C58.6765 48.5255 58.2197 47.8143 57.5378 47.405L37.4016 39.2095C32.9383 37.3925 28.0436 36.6787 23.2479 37.1439L14.3109 38.0105C13.7658 38.0651 13.2758 37.6625 13.2239 37.1145C13.1703 36.5666 13.5718 36.0793 14.1186 36.0261L23.0561 35.1593C28.1721 34.6632 33.3931 35.425 38.1526 37.3631L58.3549 45.5848C58.3962 45.6011 58.4342 45.6203 58.4723 45.6418C59.7357 46.3604 60.5855 47.6526 60.7465 49.0984C60.7657 49.2599 60.7758 49.4338 60.7758 49.6062C60.7762 50.1353 60.6859 50.6522 60.5093 51.1421C59.8483 53.0071 58.1003 54.1796 56.2156 54.1796Z" fill="#FDD43F"/>
<path fill-rule="evenodd" clip-rule="evenodd" d="M12.5906 59.7524H9.29043C8.73829 59.7524 8.29333 59.3064 8.29333 58.756C8.29356 58.2049 8.73806 57.7591 9.29015 57.7591L12.5906 57.7591C12.9453 57.7591 13.2326 57.4715 13.2326 57.1179L13.2327 36.0647C13.2327 35.7112 12.9453 35.4236 12.5906 35.4236L9.29043 35.4234C8.73829 35.4234 8.29334 34.9772 8.29334 34.4267C8.29356 33.8759 8.73807 33.4299 9.29015 33.4299L12.5906 33.4297C14.0446 33.4297 15.2263 34.6119 15.2263 36.0648L15.2264 57.1177C15.2264 58.5706 14.0443 59.7526 12.5906 59.7524Z" fill="#FDD43F"/>
<path fill-rule="evenodd" clip-rule="evenodd" d="M2.96115 59.775H7.6133C7.98716 59.775 8.29153 59.4713 8.29153 59.0982L8.29164 34.0824C8.29164 33.7093 7.98699 33.4059 7.61493 33.4059L2.96114 33.4056L2.96115 59.775ZM7.6133 61.7688H1.96428C1.41404 61.7688 0.967407 61.3224 0.967407 60.7717V32.4087C0.967407 32.1443 1.07123 31.8911 1.25819 31.7041C1.4452 31.517 1.69945 31.412 1.96422 31.412L7.61527 31.4119C9.08607 31.4119 10.2853 32.6101 10.2853 34.0827L10.2854 59.0979C10.2854 60.5707 9.086 61.7688 7.6133 61.7688Z" fill="#FDD43F"/>
<path fill-rule="evenodd" clip-rule="evenodd" d="M56.1655 7.2802C50.1862 7.2802 45.3228 12.1444 45.3228 18.1236C45.3229 24.1023 50.186 28.9669 56.1655 28.9669C62.1451 28.9667 67.0081 24.1025 67.0081 18.1236C67.0083 12.1442 62.1449 7.28026 56.1655 7.2802ZM56.1655 30.9605C49.0873 30.9605 43.3291 25.2019 43.3291 18.1236C43.3292 11.045 49.087 5.28662 56.1655 5.28662C63.244 5.28651 69.0019 11.0452 69.0019 18.1236C69.002 25.2017 63.2439 30.9605 56.1655 30.9605Z" fill="#FDD43F"/>
<path fill-rule="evenodd" clip-rule="evenodd" d="M56.1655 2.77955C47.7046 2.77955 40.8213 9.66292 40.8213 18.1237C40.8215 26.5841 47.7042 33.4676 56.1655 33.4676C64.6267 33.4672 71.5096 26.5843 71.5096 18.1237C71.5097 9.66265 64.6267 2.77984 56.1655 2.77955ZM56.1655 35.4608C46.6053 35.4608 38.8275 27.6835 38.8275 18.1236C38.8277 8.56325 46.6052 0.785889 56.1655 0.785889C65.726 0.785721 73.5034 8.56352 73.5034 18.1236C73.5035 27.6833 65.7257 35.4611 56.1655 35.4608Z" fill="#FDD43F"/>
<path fill-rule="evenodd" clip-rule="evenodd" d="M5.62655 56.8653C5.36335 56.8653 5.10546 56.7599 4.92024 56.5747C4.87543 56.5277 4.83365 56.4778 4.79734 56.4224C4.76131 56.3684 4.72982 56.3099 4.70565 56.2511C4.67992 56.1905 4.66062 56.1282 4.64854 56.0642C4.63477 56.0001 4.62952 55.9344 4.62952 55.8687C4.62968 55.8046 4.63466 55.7388 4.64854 55.6748C4.66084 55.6107 4.67958 55.5485 4.70565 55.4879C4.73015 55.4272 4.76098 55.3702 4.79734 55.3165C4.83376 55.261 4.87526 55.211 4.92024 55.1643C4.96695 55.1192 5.01713 55.0777 5.07251 55.0413C5.12616 55.0048 5.18328 54.9739 5.24386 54.9497C5.30456 54.9234 5.36676 54.9046 5.43082 54.8925C5.55881 54.8665 5.69212 54.8666 5.82022 54.8925C5.88438 54.9043 5.94653 54.9237 6.00712 54.9497C6.06776 54.9736 6.12476 55.005 6.17841 55.0413C6.23407 55.0775 6.28397 55.1192 6.33074 55.1643C6.51596 55.3494 6.62325 55.6073 6.62325 55.8687C6.62342 56.1317 6.5159 56.3878 6.33074 56.5747C6.28431 56.6196 6.23385 56.6613 6.17841 56.6977C6.12499 56.7337 6.06759 56.7651 6.00712 56.7893C5.9467 56.8151 5.88427 56.8344 5.82022 56.8465C5.75622 56.8603 5.69038 56.8655 5.62655 56.8653Z" fill="#FDD43F"/>
<path fill-rule="evenodd" clip-rule="evenodd" d="M56.6226 11.9241C56.6224 11.9262 56.6226 11.9226 56.6226 11.9241V11.9241ZM58.7702 14.1246C58.7667 14.1238 58.7736 14.1252 58.7702 14.1246V14.1246ZM59.1561 14.3968C59.1561 14.3948 59.1561 14.3987 59.1561 14.3968V14.3968ZM60.7744 19.3722C60.7743 19.3726 60.7744 19.3718 60.7744 19.3722V19.3722ZM51.5605 19.373C51.5605 19.3727 51.5605 19.3734 51.5605 19.373V19.373ZM60.6342 19.8149C60.6324 19.8163 60.6342 19.8138 60.6342 19.8149V19.8149ZM51.7057 19.8185C51.7057 19.8176 51.7057 19.8193 51.7057 19.8185V19.8185ZM51.1484 16.4906L53.0974 18.3909C53.4486 18.7309 53.6093 19.2258 53.5262 19.712L53.0658 22.3928L55.4735 21.126C55.9041 20.8991 56.4216 20.8981 56.8578 21.1247L59.2706 22.3924L58.8103 19.7106C58.7254 19.225 58.8879 18.7301 59.2426 18.3876L61.1879 16.4906L58.4933 16.0989C58.0089 16.0331 57.5847 15.7264 57.3683 15.2794L56.1674 12.8466L54.9646 15.2843C54.7485 15.722 54.331 16.0267 53.8446 16.0986L51.1484 16.4906ZM59.9403 24.8048C59.7032 24.8048 59.4659 24.7478 59.2461 24.6326L56.1674 23.0143L53.0904 24.6322C52.583 24.8978 51.9825 24.8543 51.5204 24.5182C51.0585 24.1821 50.8316 23.6241 50.9268 23.0611L51.5153 19.6339L49.0266 17.2071C48.6181 16.8096 48.4726 16.2246 48.6492 15.6809C48.8261 15.1367 49.2861 14.7475 49.8502 14.6645L53.2944 14.1636L54.833 11.0468C55.0807 10.5391 55.5892 10.2194 56.1604 10.2169C56.1587 10.2169 56.1624 10.2166 56.1604 10.2169C56.7316 10.2166 57.2472 10.5335 57.5016 11.0444C57.4999 11.0435 57.5019 11.0453 57.5016 11.0444L59.0404 14.164L62.4828 14.664C63.0486 14.7465 63.5088 15.1348 63.6853 15.6769C63.862 16.2196 63.7182 16.8053 63.3097 17.2054L60.8196 19.6343L61.408 23.0607C61.505 23.6237 61.278 24.1823 60.8158 24.518C60.5548 24.7082 60.2481 24.8048 59.9403 24.8048Z" fill="#FDD43F"/>
<path fill-rule="evenodd" clip-rule="evenodd" d="M34.2519 19.1198H31.3652C30.8146 19.1198 30.368 18.674 30.368 18.1234C30.3684 17.5727 30.8146 17.1266 31.365 17.1266L34.2519 17.1265C34.8021 17.1265 35.2486 17.5729 35.2486 18.1234C35.2488 18.674 34.802 19.1201 34.2519 19.1198Z" fill="#FDD43F"/>
<path fill-rule="evenodd" clip-rule="evenodd" d="M36.2561 14.2811C36.0014 14.2811 35.7452 14.1841 35.5514 13.9894L33.5112 11.9493C33.1218 11.5604 33.1215 10.9292 33.5109 10.5398C33.9006 10.1503 34.532 10.1505 34.9214 10.54L36.9601 12.5794C37.3495 12.9688 37.3495 13.6001 36.9601 13.9894C36.7665 14.1837 36.5102 14.2813 36.2561 14.2811Z" fill="#FDD43F"/>
<path fill-rule="evenodd" clip-rule="evenodd" d="M34.2173 25.9988C33.9611 25.9988 33.7066 25.9019 33.5111 25.7075C33.1219 25.3181 33.1217 24.6873 33.5111 24.2977L35.5518 22.2559C35.9393 21.8661 36.5709 21.8665 36.9602 22.2553C37.3496 22.6442 37.3496 23.2756 36.962 23.6651L34.9217 25.7068C34.7278 25.9015 34.4715 25.9991 34.2173 25.9988Z" fill="#FDD43F"/>
<path fill-rule="evenodd" clip-rule="evenodd" d="M80.966 19.1198H78.0794C77.5291 19.1198 77.0823 18.674 77.0823 18.1234C77.0825 17.5727 77.5289 17.1266 78.0792 17.1266L80.966 17.1265C81.5166 17.1265 81.9628 17.5729 81.9628 18.1234C81.9628 18.674 81.5163 19.1201 80.966 19.1198Z" fill="#FDD43F"/>
<path fill-rule="evenodd" clip-rule="evenodd" d="M76.0752 14.2811C75.8193 14.2811 75.5646 14.1842 75.369 13.9891C74.9817 13.5997 74.9813 12.9685 75.3708 12.5795L77.4132 10.5394C77.8026 10.15 78.4323 10.1509 78.8217 10.5404C79.2114 10.9296 79.2111 11.561 78.8217 11.95L76.7796 13.9895C76.5861 14.1838 76.3295 14.2814 76.0752 14.2811Z" fill="#FDD43F"/>
<path fill-rule="evenodd" clip-rule="evenodd" d="M78.1175 25.9989C77.8613 25.9989 77.6068 25.9019 77.4112 25.7072L75.3711 23.6652C74.9817 23.2762 74.9813 22.645 75.3708 22.2557C75.7605 21.8662 76.39 21.8663 76.7795 22.2557L78.8219 24.2972C79.2114 24.6865 79.2111 25.318 78.8217 25.7072C78.6262 25.9019 78.3717 25.9991 78.1175 25.9989Z" fill="#FDD43F"/>
</svg>
