<svg width="97" height="98" viewBox="0 0 97 98" fill="none" xmlns="http://www.w3.org/2000/svg">
<path d="M92.8475 80.0563L83.7526 69.4463C83.4662 69.1138 83.0459 68.9198 82.6024 68.9198H5.30267C4.76224 68.9198 4.26339 69.2061 3.99086 69.6727C3.71834 70.1392 3.71834 70.7166 3.98624 71.1877L9.61686 81.0448L3.99086 90.9018C3.72296 91.3683 3.72296 91.9457 3.99548 92.4122C4.26801 92.8788 4.76686 93.1651 5.30729 93.1651H82.6024C83.0459 93.1651 83.4662 92.9711 83.7526 92.6339L92.8475 82.024C93.3325 81.4605 93.3325 80.6244 92.8475 80.0563ZM7.91705 90.135L12.6839 81.793C12.9518 81.3265 12.9518 80.7538 12.6839 80.2872L7.91705 71.9452H21.0998L26.2962 81.0401L21.0998 90.135H7.91705ZM24.5872 90.135L29.3541 81.793C29.622 81.3265 29.622 80.7538 29.3541 80.2872L24.5872 71.9452H37.2711L42.4675 81.0401L37.2711 90.135H24.5872ZM40.7631 90.135L45.53 81.793C45.7979 81.3265 45.7979 80.7538 45.53 80.2872L40.7631 71.9452H53.447L58.6434 81.0401L53.447 90.135H40.7631ZM56.939 90.135L61.7059 81.793C61.9738 81.3265 61.9738 80.7538 61.7059 80.2872L56.939 71.9452H69.6229L74.8193 81.0401L69.6229 90.135H56.939ZM81.905 90.135H73.1149L77.8818 81.793C78.1497 81.3265 78.1497 80.7538 77.8818 80.2872L73.1149 71.9452H81.905L89.7019 81.0401L81.905 90.135ZM51.1421 38.2862C50.3384 36.8589 48.7679 36.1338 47.2298 36.3324L44.4953 31.7595C44.0657 31.0436 43.1327 30.808 42.4167 31.2376C41.7008 31.6671 41.4652 32.6002 41.8948 33.3161L44.6154 37.8567C43.7193 39.053 43.5622 40.7066 44.3429 42.0923C45.396 43.9677 47.7794 44.6328 49.6548 43.5797C51.5301 42.5311 52.1999 40.1616 51.1421 38.2862ZM51.1421 38.2862C50.3384 36.8589 48.7679 36.1338 47.2298 36.3324L44.4953 31.7595C44.0657 31.0436 43.1327 30.808 42.4167 31.2376C41.7008 31.6671 41.4652 32.6002 41.8948 33.3161L44.6154 37.8567C43.7193 39.053 43.5622 40.7066 44.3429 42.0923C45.396 43.9677 47.7794 44.6328 49.6548 43.5797C51.5301 42.5311 52.1999 40.1616 51.1421 38.2862ZM51.1421 38.2862C50.3384 36.8589 48.7679 36.1338 47.2298 36.3324L44.4953 31.7595C44.0657 31.0436 43.1327 30.808 42.4167 31.2376C41.7008 31.6671 41.4652 32.6002 41.8948 33.3161L44.6154 37.8567C43.7193 39.053 43.5622 40.7066 44.3429 42.0923C45.396 43.9677 47.7794 44.6328 49.6548 43.5797C51.5301 42.5311 52.1999 40.1616 51.1421 38.2862ZM51.1421 38.2862C50.3384 36.8589 48.7679 36.1338 47.2298 36.3324L44.4953 31.7595C44.0657 31.0436 43.1327 30.808 42.4167 31.2376C41.7008 31.6671 41.4652 32.6002 41.8948 33.3161L44.6154 37.8567C43.7193 39.053 43.5622 40.7066 44.3429 42.0923C45.396 43.9677 47.7794 44.6328 49.6548 43.5797C51.5301 42.5311 52.1999 40.1616 51.1421 38.2862ZM51.1421 38.2862C50.3384 36.8589 48.7679 36.1338 47.2298 36.3324L44.4953 31.7595C44.0657 31.0436 43.1327 30.808 42.4167 31.2376C41.7008 31.6671 41.4652 32.6002 41.8948 33.3161L44.6154 37.8567C43.7193 39.053 43.5622 40.7066 44.3429 42.0923C45.396 43.9677 47.7794 44.6328 49.6548 43.5797C51.5301 42.5311 52.1999 40.1616 51.1421 38.2862ZM51.1421 38.2862C50.3384 36.8589 48.7679 36.1338 47.2298 36.3324L44.4953 31.7595C44.0657 31.0436 43.1327 30.808 42.4167 31.2376C41.7008 31.6671 41.4652 32.6002 41.8948 33.3161L44.6154 37.8567C43.7193 39.053 43.5622 40.7066 44.3429 42.0923C45.396 43.9677 47.7794 44.6328 49.6548 43.5797C51.5301 42.5311 52.1999 40.1616 51.1421 38.2862ZM64.1632 30.9881C59.0684 21.9533 47.5762 18.7384 38.5136 23.8148C29.4464 28.8957 26.227 40.3602 31.3218 49.395C36.412 58.4299 47.9088 61.6448 56.9713 56.5684C66.0339 51.4921 69.258 40.0276 64.1632 30.9881ZM55.4886 53.9263C47.8811 58.1897 38.2365 55.4922 33.9639 47.9123C29.6912 40.3325 32.398 30.7202 40.001 26.4615C47.6085 22.2027 57.2531 24.8956 61.5257 32.4801C65.7937 40.0553 63.087 49.6676 55.4886 53.9263ZM47.2298 36.337L44.4953 31.7641C44.0657 31.0482 43.1327 30.8126 42.4167 31.2422C41.7008 31.6718 41.4652 32.6048 41.8948 33.3208L44.6154 37.8613C43.7193 39.0576 43.5622 40.7112 44.3429 42.0969C45.396 43.9723 47.7794 44.6374 49.6548 43.5843C51.5347 42.5311 52.1999 40.1569 51.1421 38.2862C50.3384 36.8589 48.7679 36.1338 47.2298 36.337ZM51.1421 38.2862C50.3384 36.8589 48.7679 36.1338 47.2298 36.3324L44.4953 31.7595C44.0657 31.0436 43.1327 30.808 42.4167 31.2376C41.7008 31.6671 41.4652 32.6002 41.8948 33.3161L44.6154 37.8567C43.7193 39.053 43.5622 40.7066 44.3429 42.0923C45.396 43.9677 47.7794 44.6328 49.6548 43.5797C51.5301 42.5311 52.1999 40.1616 51.1421 38.2862ZM51.1421 38.2862C50.3384 36.8589 48.7679 36.1338 47.2298 36.3324L44.4953 31.7595C44.0657 31.0436 43.1327 30.808 42.4167 31.2376C41.7008 31.6671 41.4652 32.6002 41.8948 33.3161L44.6154 37.8567C43.7193 39.053 43.5622 40.7066 44.3429 42.0923C45.396 43.9677 47.7794 44.6328 49.6548 43.5797C51.5301 42.5311 52.1999 40.1616 51.1421 38.2862ZM51.1421 38.2862C50.3384 36.8589 48.7679 36.1338 47.2298 36.3324L44.4953 31.7595C44.0657 31.0436 43.1327 30.808 42.4167 31.2376C41.7008 31.6671 41.4652 32.6002 41.8948 33.3161L44.6154 37.8567C43.7193 39.053 43.5622 40.7066 44.3429 42.0923C45.396 43.9677 47.7794 44.6328 49.6548 43.5797C51.5301 42.5311 52.1999 40.1616 51.1421 38.2862ZM51.1421 38.2862C50.3384 36.8589 48.7679 36.1338 47.2298 36.3324L44.4953 31.7595C44.0657 31.0436 43.1327 30.808 42.4167 31.2376C41.7008 31.6671 41.4652 32.6002 41.8948 33.3161L44.6154 37.8567C43.7193 39.053 43.5622 40.7066 44.3429 42.0923C45.396 43.9677 47.7794 44.6328 49.6548 43.5797C51.5301 42.5311 52.1999 40.1616 51.1421 38.2862ZM64.1632 30.9881C59.0684 21.9533 47.5762 18.7384 38.5136 23.8148C29.4464 28.8957 26.227 40.3602 31.3218 49.395C36.412 58.4299 47.9088 61.6448 56.9713 56.5684C66.0339 51.4921 69.258 40.0276 64.1632 30.9881ZM55.4886 53.9263C47.8811 58.1897 38.2365 55.4922 33.9639 47.9123C29.6912 40.3325 32.398 30.7202 40.001 26.4615C47.6085 22.2027 57.2531 24.8956 61.5257 32.4801C65.7937 40.0553 63.087 49.6676 55.4886 53.9263ZM47.2298 36.337L44.4953 31.7641C44.0657 31.0482 43.1327 30.8126 42.4167 31.2422C41.7008 31.6718 41.4652 32.6048 41.8948 33.3208L44.6154 37.8613C43.7193 39.0576 43.5622 40.7112 44.3429 42.0969C45.396 43.9723 47.7794 44.6374 49.6548 43.5843C51.5347 42.5311 52.1999 40.1569 51.1421 38.2862C50.3384 36.8589 48.7679 36.1338 47.2298 36.337ZM51.1421 38.2862C50.3384 36.8589 48.7679 36.1338 47.2298 36.3324L44.4953 31.7595C44.0657 31.0436 43.1327 30.808 42.4167 31.2376C41.7008 31.6671 41.4652 32.6002 41.8948 33.3161L44.6154 37.8567C43.7193 39.053 43.5622 40.7066 44.3429 42.0923C45.396 43.9677 47.7794 44.6328 49.6548 43.5797C51.5301 42.5311 52.1999 40.1616 51.1421 38.2862ZM51.1421 38.2862C50.3384 36.8589 48.7679 36.1338 47.2298 36.3324L44.4953 31.7595C44.0657 31.0436 43.1327 30.808 42.4167 31.2376C41.7008 31.6671 41.4652 32.6002 41.8948 33.3161L44.6154 37.8567C43.7193 39.053 43.5622 40.7066 44.3429 42.0923C45.396 43.9677 47.7794 44.6328 49.6548 43.5797C51.5301 42.5311 52.1999 40.1616 51.1421 38.2862ZM51.1421 38.2862C50.3384 36.8589 48.7679 36.1338 47.2298 36.3324L44.4953 31.7595C44.0657 31.0436 43.1327 30.808 42.4167 31.2376C41.7008 31.6671 41.4652 32.6002 41.8948 33.3161L44.6154 37.8567C43.7193 39.053 43.5622 40.7066 44.3429 42.0923C45.396 43.9677 47.7794 44.6328 49.6548 43.5797C51.5301 42.5311 52.1999 40.1616 51.1421 38.2862ZM51.1421 38.2862C50.3384 36.8589 48.7679 36.1338 47.2298 36.3324L44.4953 31.7595C44.0657 31.0436 43.1327 30.808 42.4167 31.2376C41.7008 31.6671 41.4652 32.6002 41.8948 33.3161L44.6154 37.8567C43.7193 39.053 43.5622 40.7066 44.3429 42.0923C45.396 43.9677 47.7794 44.6328 49.6548 43.5797C51.5301 42.5311 52.1999 40.1616 51.1421 38.2862ZM64.1632 30.9881C59.0684 21.9533 47.5762 18.7384 38.5136 23.8148C29.4464 28.8957 26.227 40.3602 31.3218 49.395C36.412 58.4299 47.9088 61.6448 56.9713 56.5684C66.0339 51.4921 69.258 40.0276 64.1632 30.9881ZM55.4886 53.9263C47.8811 58.1897 38.2365 55.4922 33.9639 47.9123C29.6912 40.3325 32.398 30.7202 40.001 26.4615C47.6085 22.2027 57.2531 24.8956 61.5257 32.4801C65.7937 40.0553 63.087 49.6676 55.4886 53.9263ZM47.2298 36.337L44.4953 31.7641C44.0657 31.0482 43.1327 30.8126 42.4167 31.2422C41.7008 31.6718 41.4652 32.6048 41.8948 33.3208L44.6154 37.8613C43.7193 39.0576 43.5622 40.7112 44.3429 42.0969C45.396 43.9723 47.7794 44.6374 49.6548 43.5843C51.5347 42.5311 52.1999 40.1569 51.1421 38.2862C50.3384 36.8589 48.7679 36.1338 47.2298 36.337ZM64.1632 30.9881C59.0684 21.9533 47.5762 18.7384 38.5136 23.8148C29.4464 28.8957 26.227 40.3602 31.3218 49.395C36.412 58.4299 47.9088 61.6448 56.9713 56.5684C66.0339 51.4921 69.258 40.0276 64.1632 30.9881ZM55.4886 53.9263C47.8811 58.1897 38.2365 55.4922 33.9639 47.9123C29.6912 40.3325 32.398 30.7202 40.001 26.4615C47.6085 22.2027 57.2531 24.8956 61.5257 32.4801C65.7937 40.0553 63.087 49.6676 55.4886 53.9263ZM47.2298 36.337L44.4953 31.7641C44.0657 31.0482 43.1327 30.8126 42.4167 31.2422C41.7008 31.6718 41.4652 32.6048 41.8948 33.3208L44.6154 37.8613C43.7193 39.0576 43.5622 40.7112 44.3429 42.0969C45.396 43.9723 47.7794 44.6374 49.6548 43.5843C51.5347 42.5311 52.1999 40.1569 51.1421 38.2862C50.3384 36.8589 48.7679 36.1338 47.2298 36.337ZM70.2003 27.6024C67.9739 23.6531 64.8514 20.5121 61.2255 18.2996C57.6042 16.0871 53.4793 14.7984 49.2529 14.5443V12.9415L50.7218 12.96C52.6387 12.9831 54.2092 11.4496 54.2276 9.53728L54.2369 8.84442V8.82595C54.26 6.91366 52.7264 5.3478 50.8095 5.32471L45.4745 5.26466C43.5576 5.24157 41.9918 6.77509 41.9687 8.68738L41.9594 9.39871C41.9363 11.3064 43.4652 12.8769 45.3868 12.8999L46.2228 12.9092V14.5443C42.911 14.7337 39.5945 15.5698 36.4535 17.094L35.6637 15.6806L36.6614 15.1217C38.3335 14.184 38.9247 12.0731 37.9871 10.4057L37.636 9.78209C36.6983 8.11923 34.5874 7.52338 32.9153 8.46104L28.2686 11.0662C26.5965 12.0039 26.0052 14.1148 26.9475 15.7822L26.9568 15.8007L27.3171 16.4428L27.294 16.4058C28.2316 18.0687 30.3471 18.6599 32.0146 17.7269L33.0216 17.1633L33.8207 18.5768C22.4209 25.8656 18.564 40.8637 25.2847 52.7854C32.2502 65.146 47.9734 69.5387 60.3663 62.5963C72.7639 55.6446 77.1704 39.9676 70.2003 27.6024ZM45.4283 9.86523C45.1974 9.86523 45.008 9.68509 44.9988 9.45876L45.0034 8.73357V8.71509C45.0034 8.4749 45.2066 8.29014 45.4422 8.29014L50.7772 8.35019C51.0174 8.3548 51.2114 8.54419 51.2068 8.78438L51.1975 9.49571C51.1929 9.7359 50.9943 9.92528 50.7541 9.92066L45.4283 9.86523ZM30.5273 15.0848C30.3148 15.2049 30.0515 15.1263 29.9314 14.9185L29.9453 14.9416L29.585 14.2949C29.4695 14.087 29.5434 13.8284 29.7513 13.7129L34.4027 11.1078C34.6152 10.9877 34.8784 11.0616 34.9985 11.2694L35.3496 11.893C35.4651 12.1009 35.3912 12.3595 35.1833 12.475L30.5273 15.0848ZM58.879 59.945C47.9411 66.0744 34.0655 62.199 27.9175 51.2935C21.7742 40.3971 25.6588 26.5816 36.5829 20.4475L36.6106 20.429C43.8348 16.3873 52.3384 16.7107 59.0499 20.5352C62.4957 22.4983 65.4704 25.3899 67.5582 29.0897C73.7062 39.9953 69.8169 53.8201 58.879 59.945ZM38.5136 23.8148C29.4464 28.8957 26.227 40.3602 31.3218 49.395C36.412 58.4299 47.9088 61.6448 56.9713 56.5684C66.0385 51.4875 69.258 40.0276 64.1678 30.9881C59.0684 21.9533 47.5762 18.7384 38.5136 23.8148ZM55.4886 53.9263C47.8811 58.1897 38.2365 55.4922 33.9639 47.9123C29.6912 40.3325 32.398 30.7202 40.001 26.4615C47.6085 22.2027 57.2531 24.8956 61.5257 32.4801C65.7937 40.0553 63.087 49.6676 55.4886 53.9263ZM47.2298 36.337L44.4953 31.7641C44.0657 31.0482 43.1327 30.8126 42.4167 31.2422C41.7008 31.6718 41.4652 32.6048 41.8948 33.3208L44.6154 37.8613C43.7193 39.0576 43.5622 40.7112 44.3429 42.0969C45.396 43.9723 47.7794 44.6374 49.6548 43.5843C51.5347 42.5311 52.1999 40.1569 51.1421 38.2862C50.3384 36.8589 48.7679 36.1338 47.2298 36.337ZM51.1421 38.2862C50.3384 36.8589 48.7679 36.1338 47.2298 36.3324L44.4953 31.7595C44.0657 31.0436 43.1327 30.808 42.4167 31.2376C41.7008 31.6671 41.4652 32.6002 41.8948 33.3161L44.6154 37.8567C43.7193 39.053 43.5622 40.7066 44.3429 42.0923C45.396 43.9677 47.7794 44.6328 49.6548 43.5797C51.5301 42.5311 52.1999 40.1616 51.1421 38.2862ZM51.1421 38.2862C50.3384 36.8589 48.7679 36.1338 47.2298 36.3324L44.4953 31.7595C44.0657 31.0436 43.1327 30.808 42.4167 31.2376C41.7008 31.6671 41.4652 32.6002 41.8948 33.3161L44.6154 37.8567C43.7193 39.053 43.5622 40.7066 44.3429 42.0923C45.396 43.9677 47.7794 44.6328 49.6548 43.5797C51.5301 42.5311 52.1999 40.1616 51.1421 38.2862ZM64.1632 30.9881C59.0684 21.9533 47.5762 18.7384 38.5136 23.8148C29.4464 28.8957 26.227 40.3602 31.3218 49.395C36.412 58.4299 47.9088 61.6448 56.9713 56.5684C66.0339 51.4921 69.258 40.0276 64.1632 30.9881ZM55.4886 53.9263C47.8811 58.1897 38.2365 55.4922 33.9639 47.9123C29.6912 40.3325 32.398 30.7202 40.001 26.4615C47.6085 22.2027 57.2531 24.8956 61.5257 32.4801C65.7937 40.0553 63.087 49.6676 55.4886 53.9263ZM47.2298 36.337L44.4953 31.7641C44.0657 31.0482 43.1327 30.8126 42.4167 31.2422C41.7008 31.6718 41.4652 32.6048 41.8948 33.3208L44.6154 37.8613C43.7193 39.0576 43.5622 40.7112 44.3429 42.0969C45.396 43.9723 47.7794 44.6374 49.6548 43.5843C51.5347 42.5311 52.1999 40.1569 51.1421 38.2862C50.3384 36.8589 48.7679 36.1338 47.2298 36.337ZM51.1421 38.2862C50.3384 36.8589 48.7679 36.1338 47.2298 36.3324L44.4953 31.7595C44.0657 31.0436 43.1327 30.808 42.4167 31.2376C41.7008 31.6671 41.4652 32.6002 41.8948 33.3161L44.6154 37.8567C43.7193 39.053 43.5622 40.7066 44.3429 42.0923C45.396 43.9677 47.7794 44.6328 49.6548 43.5797C51.5301 42.5311 52.1999 40.1616 51.1421 38.2862ZM51.1421 38.2862C50.3384 36.8589 48.7679 36.1338 47.2298 36.3324L44.4953 31.7595C44.0657 31.0436 43.1327 30.808 42.4167 31.2376C41.7008 31.6671 41.4652 32.6002 41.8948 33.3161L44.6154 37.8567C43.7193 39.053 43.5622 40.7066 44.3429 42.0923C45.396 43.9677 47.7794 44.6328 49.6548 43.5797C51.5301 42.5311 52.1999 40.1616 51.1421 38.2862ZM64.1632 30.9881C59.0684 21.9533 47.5762 18.7384 38.5136 23.8148C29.4464 28.8957 26.227 40.3602 31.3218 49.395C36.412 58.4299 47.9088 61.6448 56.9713 56.5684C66.0339 51.4921 69.258 40.0276 64.1632 30.9881ZM55.4886 53.9263C47.8811 58.1897 38.2365 55.4922 33.9639 47.9123C29.6912 40.3325 32.398 30.7202 40.001 26.4615C47.6085 22.2027 57.2531 24.8956 61.5257 32.4801C65.7937 40.0553 63.087 49.6676 55.4886 53.9263ZM47.2298 36.337L44.4953 31.7641C44.0657 31.0482 43.1327 30.8126 42.4167 31.2422C41.7008 31.6718 41.4652 32.6048 41.8948 33.3208L44.6154 37.8613C43.7193 39.0576 43.5622 40.7112 44.3429 42.0969C45.396 43.9723 47.7794 44.6374 49.6548 43.5843C51.5347 42.5311 52.1999 40.1569 51.1421 38.2862C50.3384 36.8589 48.7679 36.1338 47.2298 36.337ZM51.1421 38.2862C50.3384 36.8589 48.7679 36.1338 47.2298 36.3324L44.4953 31.7595C44.0657 31.0436 43.1327 30.808 42.4167 31.2376C41.7008 31.6671 41.4652 32.6002 41.8948 33.3161L44.6154 37.8567C43.7193 39.053 43.5622 40.7066 44.3429 42.0923C45.396 43.9677 47.7794 44.6328 49.6548 43.5797C51.5301 42.5311 52.1999 40.1616 51.1421 38.2862ZM51.1421 38.2862C50.3384 36.8589 48.7679 36.1338 47.2298 36.3324L44.4953 31.7595C44.0657 31.0436 43.1327 30.808 42.4167 31.2376C41.7008 31.6671 41.4652 32.6002 41.8948 33.3161L44.6154 37.8567C43.7193 39.053 43.5622 40.7066 44.3429 42.0923C45.396 43.9677 47.7794 44.6328 49.6548 43.5797C51.5301 42.5311 52.1999 40.1616 51.1421 38.2862ZM51.1421 38.2862C50.3384 36.8589 48.7679 36.1338 47.2298 36.3324L44.4953 31.7595C44.0657 31.0436 43.1327 30.808 42.4167 31.2376C41.7008 31.6671 41.4652 32.6002 41.8948 33.3161L44.6154 37.8567C43.7193 39.053 43.5622 40.7066 44.3429 42.0923C45.396 43.9677 47.7794 44.6328 49.6548 43.5797C51.5301 42.5311 52.1999 40.1616 51.1421 38.2862ZM51.1421 38.2862C50.3384 36.8589 48.7679 36.1338 47.2298 36.3324L44.4953 31.7595C44.0657 31.0436 43.1327 30.808 42.4167 31.2376C41.7008 31.6671 41.4652 32.6002 41.8948 33.3161L44.6154 37.8567C43.7193 39.053 43.5622 40.7066 44.3429 42.0923C45.396 43.9677 47.7794 44.6328 49.6548 43.5797C51.5301 42.5311 52.1999 40.1616 51.1421 38.2862ZM51.1421 38.2862C50.3384 36.8589 48.7679 36.1338 47.2298 36.3324L44.4953 31.7595C44.0657 31.0436 43.1327 30.808 42.4167 31.2376C41.7008 31.6671 41.4652 32.6002 41.8948 33.3161L44.6154 37.8567C43.7193 39.053 43.5622 40.7066 44.3429 42.0923C45.396 43.9677 47.7794 44.6328 49.6548 43.5797C51.5301 42.5311 52.1999 40.1616 51.1421 38.2862ZM51.1421 38.2862C50.3384 36.8589 48.7679 36.1338 47.2298 36.3324L44.4953 31.7595C44.0657 31.0436 43.1327 30.808 42.4167 31.2376C41.7008 31.6671 41.4652 32.6002 41.8948 33.3161L44.6154 37.8567C43.7193 39.053 43.5622 40.7066 44.3429 42.0923C45.396 43.9677 47.7794 44.6328 49.6548 43.5797C51.5301 42.5311 52.1999 40.1616 51.1421 38.2862ZM64.1632 30.9881C59.0684 21.9533 47.5762 18.7384 38.5136 23.8148C29.4464 28.8957 26.227 40.3602 31.3218 49.395C36.412 58.4299 47.9088 61.6448 56.9713 56.5684C66.0339 51.4921 69.258 40.0276 64.1632 30.9881ZM55.4886 53.9263C47.8811 58.1897 38.2365 55.4922 33.9639 47.9123C29.6912 40.3325 32.398 30.7202 40.001 26.4615C47.6085 22.2027 57.2531 24.8956 61.5257 32.4801C65.7937 40.0553 63.087 49.6676 55.4886 53.9263ZM47.2298 36.337L44.4953 31.7641C44.0657 31.0482 43.1327 30.8126 42.4167 31.2422C41.7008 31.6718 41.4652 32.6048 41.8948 33.3208L44.6154 37.8613C43.7193 39.0576 43.5622 40.7112 44.3429 42.0969C45.396 43.9723 47.7794 44.6374 49.6548 43.5843C51.5347 42.5311 52.1999 40.1569 51.1421 38.2862C50.3384 36.8589 48.7679 36.1338 47.2298 36.337ZM51.1421 38.2862C50.3384 36.8589 48.7679 36.1338 47.2298 36.3324L44.4953 31.7595C44.0657 31.0436 43.1327 30.808 42.4167 31.2376C41.7008 31.6671 41.4652 32.6002 41.8948 33.3161L44.6154 37.8567C43.7193 39.053 43.5622 40.7066 44.3429 42.0923C45.396 43.9677 47.7794 44.6328 49.6548 43.5797C51.5301 42.5311 52.1999 40.1616 51.1421 38.2862ZM51.1421 38.2862C50.3384 36.8589 48.7679 36.1338 47.2298 36.3324L44.4953 31.7595C44.0657 31.0436 43.1327 30.808 42.4167 31.2376C41.7008 31.6671 41.4652 32.6002 41.8948 33.3161L44.6154 37.8567C43.7193 39.053 43.5622 40.7066 44.3429 42.0923C45.396 43.9677 47.7794 44.6328 49.6548 43.5797C51.5301 42.5311 52.1999 40.1616 51.1421 38.2862ZM51.1421 38.2862C50.3384 36.8589 48.7679 36.1338 47.2298 36.3324L44.4953 31.7595C44.0657 31.0436 43.1327 30.808 42.4167 31.2376C41.7008 31.6671 41.4652 32.6002 41.8948 33.3161L44.6154 37.8567C43.7193 39.053 43.5622 40.7066 44.3429 42.0923C45.396 43.9677 47.7794 44.6328 49.6548 43.5797C51.5301 42.5311 52.1999 40.1616 51.1421 38.2862ZM51.1421 38.2862C50.3384 36.8589 48.7679 36.1338 47.2298 36.3324L44.4953 31.7595C44.0657 31.0436 43.1327 30.808 42.4167 31.2376C41.7008 31.6671 41.4652 32.6002 41.8948 33.3161L44.6154 37.8567C43.7193 39.053 43.5622 40.7066 44.3429 42.0923C45.396 43.9677 47.7794 44.6328 49.6548 43.5797C51.5301 42.5311 52.1999 40.1616 51.1421 38.2862ZM51.1421 38.2862C50.3384 36.8589 48.7679 36.1338 47.2298 36.3324L44.4953 31.7595C44.0657 31.0436 43.1327 30.808 42.4167 31.2376C41.7008 31.6671 41.4652 32.6002 41.8948 33.3161L44.6154 37.8567C43.7193 39.053 43.5622 40.7066 44.3429 42.0923C45.396 43.9677 47.7794 44.6328 49.6548 43.5797C51.5301 42.5311 52.1999 40.1616 51.1421 38.2862ZM51.1421 38.2862C50.3384 36.8589 48.7679 36.1338 47.2298 36.3324L44.4953 31.7595C44.0657 31.0436 43.1327 30.808 42.4167 31.2376C41.7008 31.6671 41.4652 32.6002 41.8948 33.3161L44.6154 37.8567C43.7193 39.053 43.5622 40.7066 44.3429 42.0923C45.396 43.9677 47.7794 44.6328 49.6548 43.5797C51.5301 42.5311 52.1999 40.1616 51.1421 38.2862ZM64.1632 30.9881C59.0684 21.9533 47.5762 18.7384 38.5136 23.8148C29.4464 28.8957 26.227 40.3602 31.3218 49.395C36.412 58.4299 47.9088 61.6448 56.9713 56.5684C66.0339 51.4921 69.258 40.0276 64.1632 30.9881ZM55.4886 53.9263C47.8811 58.1897 38.2365 55.4922 33.9639 47.9123C29.6912 40.3325 32.398 30.7202 40.001 26.4615C47.6085 22.2027 57.2531 24.8956 61.5257 32.4801C65.7937 40.0553 63.087 49.6676 55.4886 53.9263ZM47.2298 36.337L44.4953 31.7641C44.0657 31.0482 43.1327 30.8126 42.4167 31.2422C41.7008 31.6718 41.4652 32.6048 41.8948 33.3208L44.6154 37.8613C43.7193 39.0576 43.5622 40.7112 44.3429 42.0969C45.396 43.9723 47.7794 44.6374 49.6548 43.5843C51.5347 42.5311 52.1999 40.1569 51.1421 38.2862C50.3384 36.8589 48.7679 36.1338 47.2298 36.337ZM51.1421 38.2862C50.3384 36.8589 48.7679 36.1338 47.2298 36.3324L44.4953 31.7595C44.0657 31.0436 43.1327 30.808 42.4167 31.2376C41.7008 31.6671 41.4652 32.6002 41.8948 33.3161L44.6154 37.8567C43.7193 39.053 43.5622 40.7066 44.3429 42.0923C45.396 43.9677 47.7794 44.6328 49.6548 43.5797C51.5301 42.5311 52.1999 40.1616 51.1421 38.2862ZM51.1421 38.2862C50.3384 36.8589 48.7679 36.1338 47.2298 36.3324L44.4953 31.7595C44.0657 31.0436 43.1327 30.808 42.4167 31.2376C41.7008 31.6671 41.4652 32.6002 41.8948 33.3161L44.6154 37.8567C43.7193 39.053 43.5622 40.7066 44.3429 42.0923C45.396 43.9677 47.7794 44.6328 49.6548 43.5797C51.5301 42.5311 52.1999 40.1616 51.1421 38.2862ZM51.1421 38.2862C50.3384 36.8589 48.7679 36.1338 47.2298 36.3324L44.4953 31.7595C44.0657 31.0436 43.1327 30.808 42.4167 31.2376C41.7008 31.6671 41.4652 32.6002 41.8948 33.3161L44.6154 37.8567C43.7193 39.053 43.5622 40.7066 44.3429 42.0923C45.396 43.9677 47.7794 44.6328 49.6548 43.5797C51.5301 42.5311 52.1999 40.1616 51.1421 38.2862ZM51.1421 38.2862C50.3384 36.8589 48.7679 36.1338 47.2298 36.3324L44.4953 31.7595C44.0657 31.0436 43.1327 30.808 42.4167 31.2376C41.7008 31.6671 41.4652 32.6002 41.8948 33.3161L44.6154 37.8567C43.7193 39.053 43.5622 40.7066 44.3429 42.0923C45.396 43.9677 47.7794 44.6328 49.6548 43.5797C51.5301 42.5311 52.1999 40.1616 51.1421 38.2862ZM51.1421 38.2862C50.3384 36.8589 48.7679 36.1338 47.2298 36.3324L44.4953 31.7595C44.0657 31.0436 43.1327 30.808 42.4167 31.2376C41.7008 31.6671 41.4652 32.6002 41.8948 33.3161L44.6154 37.8567C43.7193 39.053 43.5622 40.7066 44.3429 42.0923C45.396 43.9677 47.7794 44.6328 49.6548 43.5797C51.5301 42.5311 52.1999 40.1616 51.1421 38.2862ZM51.1421 38.2862C50.3384 36.8589 48.7679 36.1338 47.2298 36.3324L44.4953 31.7595C44.0657 31.0436 43.1327 30.808 42.4167 31.2376C41.7008 31.6671 41.4652 32.6002 41.8948 33.3161L44.6154 37.8567C43.7193 39.053 43.5622 40.7066 44.3429 42.0923C45.396 43.9677 47.7794 44.6328 49.6548 43.5797C51.5301 42.5311 52.1999 40.1616 51.1421 38.2862ZM51.1421 38.2862C50.3384 36.8589 48.7679 36.1338 47.2298 36.3324L44.4953 31.7595C44.0657 31.0436 43.1327 30.808 42.4167 31.2376C41.7008 31.6671 41.4652 32.6002 41.8948 33.3161L44.6154 37.8567C43.7193 39.053 43.5622 40.7066 44.3429 42.0923C45.396 43.9677 47.7794 44.6328 49.6548 43.5797C51.5301 42.5311 52.1999 40.1616 51.1421 38.2862ZM51.1421 38.2862C50.3384 36.8589 48.7679 36.1338 47.2298 36.3324L44.4953 31.7595C44.0657 31.0436 43.1327 30.808 42.4167 31.2376C41.7008 31.6671 41.4652 32.6002 41.8948 33.3161L44.6154 37.8567C43.7193 39.053 43.5622 40.7066 44.3429 42.0923C45.396 43.9677 47.7794 44.6328 49.6548 43.5797C51.5301 42.5311 52.1999 40.1616 51.1421 38.2862ZM51.1421 38.2862C50.3384 36.8589 48.7679 36.1338 47.2298 36.3324L44.4953 31.7595C44.0657 31.0436 43.1327 30.808 42.4167 31.2376C41.7008 31.6671 41.4652 32.6002 41.8948 33.3161L44.6154 37.8567C43.7193 39.053 43.5622 40.7066 44.3429 42.0923C45.396 43.9677 47.7794 44.6328 49.6548 43.5797C51.5301 42.5311 52.1999 40.1616 51.1421 38.2862ZM51.1421 38.2862C50.3384 36.8589 48.7679 36.1338 47.2298 36.3324L44.4953 31.7595C44.0657 31.0436 43.1327 30.808 42.4167 31.2376C41.7008 31.6671 41.4652 32.6002 41.8948 33.3161L44.6154 37.8567C43.7193 39.053 43.5622 40.7066 44.3429 42.0923C45.396 43.9677 47.7794 44.6328 49.6548 43.5797C51.5301 42.5311 52.1999 40.1616 51.1421 38.2862ZM64.1632 30.9881C59.0684 21.9533 47.5762 18.7384 38.5136 23.8148C29.4464 28.8957 26.227 40.3602 31.3218 49.395C36.412 58.4299 47.9088 61.6448 56.9713 56.5684C66.0339 51.4921 69.258 40.0276 64.1632 30.9881ZM55.4886 53.9263C47.8811 58.1897 38.2365 55.4922 33.9639 47.9123C29.6912 40.3325 32.398 30.7202 40.001 26.4615C47.6085 22.2027 57.2531 24.8956 61.5257 32.4801C65.7937 40.0553 63.087 49.6676 55.4886 53.9263ZM47.2298 36.337L44.4953 31.7641C44.0657 31.0482 43.1327 30.8126 42.4167 31.2422C41.7008 31.6718 41.4652 32.6048 41.8948 33.3208L44.6154 37.8613C43.7193 39.0576 43.5622 40.7112 44.3429 42.0969C45.396 43.9723 47.7794 44.6374 49.6548 43.5843C51.5347 42.5311 52.1999 40.1569 51.1421 38.2862C50.3384 36.8589 48.7679 36.1338 47.2298 36.337ZM51.1421 38.2862C50.3384 36.8589 48.7679 36.1338 47.2298 36.3324L44.4953 31.7595C44.0657 31.0436 43.1327 30.808 42.4167 31.2376C41.7008 31.6671 41.4652 32.6002 41.8948 33.3161L44.6154 37.8567C43.7193 39.053 43.5622 40.7066 44.3429 42.0923C45.396 43.9677 47.7794 44.6328 49.6548 43.5797C51.5301 42.5311 52.1999 40.1616 51.1421 38.2862ZM51.1421 38.2862C50.3384 36.8589 48.7679 36.1338 47.2298 36.3324L44.4953 31.7595C44.0657 31.0436 43.1327 30.808 42.4167 31.2376C41.7008 31.6671 41.4652 32.6002 41.8948 33.3161L44.6154 37.8567C43.7193 39.053 43.5622 40.7066 44.3429 42.0923C45.396 43.9677 47.7794 44.6328 49.6548 43.5797C51.5301 42.5311 52.1999 40.1616 51.1421 38.2862ZM51.1421 38.2862C50.3384 36.8589 48.7679 36.1338 47.2298 36.3324L44.4953 31.7595C44.0657 31.0436 43.1327 30.808 42.4167 31.2376C41.7008 31.6671 41.4652 32.6002 41.8948 33.3161L44.6154 37.8567C43.7193 39.053 43.5622 40.7066 44.3429 42.0923C45.396 43.9677 47.7794 44.6328 49.6548 43.5797C51.5301 42.5311 52.1999 40.1616 51.1421 38.2862ZM51.1421 38.2862C50.3384 36.8589 48.7679 36.1338 47.2298 36.3324L44.4953 31.7595C44.0657 31.0436 43.1327 30.808 42.4167 31.2376C41.7008 31.6671 41.4652 32.6002 41.8948 33.3161L44.6154 37.8567C43.7193 39.053 43.5622 40.7066 44.3429 42.0923C45.396 43.9677 47.7794 44.6328 49.6548 43.5797C51.5301 42.5311 52.1999 40.1616 51.1421 38.2862ZM51.1421 38.2862C50.3384 36.8589 48.7679 36.1338 47.2298 36.3324L44.4953 31.7595C44.0657 31.0436 43.1327 30.808 42.4167 31.2376C41.7008 31.6671 41.4652 32.6002 41.8948 33.3161L44.6154 37.8567C43.7193 39.053 43.5622 40.7066 44.3429 42.0923C45.396 43.9677 47.7794 44.6328 49.6548 43.5797C51.5301 42.5311 52.1999 40.1616 51.1421 38.2862ZM51.1421 38.2862C50.3384 36.8589 48.7679 36.1338 47.2298 36.3324L44.4953 31.7595C44.0657 31.0436 43.1327 30.808 42.4167 31.2376C41.7008 31.6671 41.4652 32.6002 41.8948 33.3161L44.6154 37.8567C43.7193 39.053 43.5622 40.7066 44.3429 42.0923C45.396 43.9677 47.7794 44.6328 49.6548 43.5797C51.5301 42.5311 52.1999 40.1616 51.1421 38.2862ZM51.1421 38.2862C50.3384 36.8589 48.7679 36.1338 47.2298 36.3324L44.4953 31.7595C44.0657 31.0436 43.1327 30.808 42.4167 31.2376C41.7008 31.6671 41.4652 32.6002 41.8948 33.3161L44.6154 37.8567C43.7193 39.053 43.5622 40.7066 44.3429 42.0923C45.396 43.9677 47.7794 44.6328 49.6548 43.5797C51.5301 42.5311 52.1999 40.1616 51.1421 38.2862ZM51.1421 38.2862C50.3384 36.8589 48.7679 36.1338 47.2298 36.3324L44.4953 31.7595C44.0657 31.0436 43.1327 30.808 42.4167 31.2376C41.7008 31.6671 41.4652 32.6002 41.8948 33.3161L44.6154 37.8567C43.7193 39.053 43.5622 40.7066 44.3429 42.0923C45.396 43.9677 47.7794 44.6328 49.6548 43.5797C51.5301 42.5311 52.1999 40.1616 51.1421 38.2862ZM51.1421 38.2862C50.3384 36.8589 48.7679 36.1338 47.2298 36.3324L44.4953 31.7595C44.0657 31.0436 43.1327 30.808 42.4167 31.2376C41.7008 31.6671 41.4652 32.6002 41.8948 33.3161L44.6154 37.8567C43.7193 39.053 43.5622 40.7066 44.3429 42.0923C45.396 43.9677 47.7794 44.6328 49.6548 43.5797C51.5301 42.5311 52.1999 40.1616 51.1421 38.2862ZM51.1421 38.2862C50.3384 36.8589 48.7679 36.1338 47.2298 36.3324L44.4953 31.7595C44.0657 31.0436 43.1327 30.808 42.4167 31.2376C41.7008 31.6671 41.4652 32.6002 41.8948 33.3161L44.6154 37.8567C43.7193 39.053 43.5622 40.7066 44.3429 42.0923C45.396 43.9677 47.7794 44.6328 49.6548 43.5797C51.5301 42.5311 52.1999 40.1616 51.1421 38.2862ZM64.1632 30.9881C59.0684 21.9533 47.5762 18.7384 38.5136 23.8148C29.4464 28.8957 26.227 40.3602 31.3218 49.395C36.412 58.4299 47.9088 61.6448 56.9713 56.5684C66.0339 51.4921 69.258 40.0276 64.1632 30.9881ZM55.4886 53.9263C47.8811 58.1897 38.2365 55.4922 33.9639 47.9123C29.6912 40.3325 32.398 30.7202 40.001 26.4615C47.6085 22.2027 57.2531 24.8956 61.5257 32.4801C65.7937 40.0553 63.087 49.6676 55.4886 53.9263ZM47.2298 36.337L44.4953 31.7641C44.0657 31.0482 43.1327 30.8126 42.4167 31.2422C41.7008 31.6718 41.4652 32.6048 41.8948 33.3208L44.6154 37.8613C43.7193 39.0576 43.5622 40.7112 44.3429 42.0969C45.396 43.9723 47.7794 44.6374 49.6548 43.5843C51.5347 42.5311 52.1999 40.1569 51.1421 38.2862C50.3384 36.8589 48.7679 36.1338 47.2298 36.337ZM51.1421 38.2862C50.3384 36.8589 48.7679 36.1338 47.2298 36.3324L44.4953 31.7595C44.0657 31.0436 43.1327 30.808 42.4167 31.2376C41.7008 31.6671 41.4652 32.6002 41.8948 33.3161L44.6154 37.8567C43.7193 39.053 43.5622 40.7066 44.3429 42.0923C45.396 43.9677 47.7794 44.6328 49.6548 43.5797C51.5301 42.5311 52.1999 40.1616 51.1421 38.2862ZM51.1421 38.2862C50.3384 36.8589 48.7679 36.1338 47.2298 36.3324L44.4953 31.7595C44.0657 31.0436 43.1327 30.808 42.4167 31.2376C41.7008 31.6671 41.4652 32.6002 41.8948 33.3161L44.6154 37.8567C43.7193 39.053 43.5622 40.7066 44.3429 42.0923C45.396 43.9677 47.7794 44.6328 49.6548 43.5797C51.5301 42.5311 52.1999 40.1616 51.1421 38.2862ZM51.1421 38.2862C50.3384 36.8589 48.7679 36.1338 47.2298 36.3324L44.4953 31.7595C44.0657 31.0436 43.1327 30.808 42.4167 31.2376C41.7008 31.6671 41.4652 32.6002 41.8948 33.3161L44.6154 37.8567C43.7193 39.053 43.5622 40.7066 44.3429 42.0923C45.396 43.9677 47.7794 44.6328 49.6548 43.5797C51.5301 42.5311 52.1999 40.1616 51.1421 38.2862ZM51.1421 38.2862C50.3384 36.8589 48.7679 36.1338 47.2298 36.3324L44.4953 31.7595C44.0657 31.0436 43.1327 30.808 42.4167 31.2376C41.7008 31.6671 41.4652 32.6002 41.8948 33.3161L44.6154 37.8567C43.7193 39.053 43.5622 40.7066 44.3429 42.0923C45.396 43.9677 47.7794 44.6328 49.6548 43.5797C51.5301 42.5311 52.1999 40.1616 51.1421 38.2862ZM51.1421 38.2862C50.3384 36.8589 48.7679 36.1338 47.2298 36.3324L44.4953 31.7595C44.0657 31.0436 43.1327 30.808 42.4167 31.2376C41.7008 31.6671 41.4652 32.6002 41.8948 33.3161L44.6154 37.8567C43.7193 39.053 43.5622 40.7066 44.3429 42.0923C45.396 43.9677 47.7794 44.6328 49.6548 43.5797C51.5301 42.5311 52.1999 40.1616 51.1421 38.2862ZM51.1421 38.2862C50.3384 36.8589 48.7679 36.1338 47.2298 36.3324L44.4953 31.7595C44.0657 31.0436 43.1327 30.808 42.4167 31.2376C41.7008 31.6671 41.4652 32.6002 41.8948 33.3161L44.6154 37.8567C43.7193 39.053 43.5622 40.7066 44.3429 42.0923C45.396 43.9677 47.7794 44.6328 49.6548 43.5797C51.5301 42.5311 52.1999 40.1616 51.1421 38.2862ZM27.3355 16.4751L27.3448 16.4936L27.3632 16.5167L27.3355 16.4751Z" fill="#FDD43F"/>
</svg>
