<svg width="150" height="35" viewBox="0 0 150 35" fill="none" xmlns="http://www.w3.org/2000/svg">
<path d="M0.296072 2.68879C-0.0962 2.30002 -0.09904 1.66686 0.289729 1.27459C0.678497 0.882317 1.31166 0.879478 1.70393 1.26825L1 1.97852L0.296072 2.68879ZM147.934 0.980717C148.485 0.944103 148.961 1.36115 148.998 1.91222L149.594 10.8924C149.631 11.4435 149.214 11.9199 148.663 11.9565C148.112 11.9931 147.635 11.5761 147.599 11.025L147.068 3.04261L139.086 3.57296C138.535 3.60958 138.059 3.19253 138.022 2.64146C137.985 2.09039 138.402 1.61398 138.954 1.57736L147.934 0.980717ZM1 1.97852L1.70393 1.26825C2.0643 1.6254 2.42648 1.9796 2.79043 2.33084L2.096 3.0504L1.40157 3.76996C1.03125 3.41257 0.662735 3.05218 0.296072 2.68879L1 1.97852ZM4.32011 5.14054L4.99518 4.40279C5.74239 5.08652 6.49653 5.75821 7.25731 6.41787L6.60221 7.17341L5.94711 7.92895C5.17286 7.25762 4.40541 6.57406 3.64504 5.8783L4.32011 5.14054ZM8.93229 9.13968L9.5669 8.36684C10.3501 9.00993 11.1398 9.64066 11.9357 10.259L11.3222 11.0487L10.7087 11.8384C9.89855 11.209 9.09478 10.567 8.29768 9.91251L8.93229 9.13968ZM13.7551 12.8865L14.347 12.0805C15.1633 12.6799 15.9857 13.2667 16.8139 13.8408L16.2442 14.6626L15.6745 15.4845C14.8314 14.9001 13.9942 14.3027 13.1633 13.6925L13.7551 12.8865ZM18.7761 16.367L19.3231 15.5299C20.1697 16.083 21.0218 16.6233 21.8792 17.1505L21.3553 18.0024L20.8315 18.8542C19.9585 18.3173 19.0909 17.7673 18.2291 17.2041L18.7761 16.367ZM23.9793 19.5666L24.4794 18.7006C25.3539 19.2057 26.2334 19.6976 27.1177 20.1762L26.6417 21.0556L26.1657 21.9351C25.2652 21.4477 24.3696 20.9468 23.4791 20.4325L23.9793 19.5666ZM29.3504 22.4734L29.8017 21.5811C30.7027 22.0368 31.6083 22.4791 32.518 22.9078L32.0916 23.8124L31.6653 24.7169C30.7388 24.2803 29.8166 23.8299 28.899 23.3657L29.3504 22.4734ZM34.874 25.0763L35.2748 24.1602C36.2005 24.5651 37.1301 24.9562 38.0632 25.3335L37.6884 26.2606L37.3135 27.1877C36.363 26.8034 35.4161 26.405 34.4733 25.9925L34.874 25.0763ZM40.5343 27.3648L40.8828 26.4275C41.8303 26.7798 42.7811 27.1181 43.7349 27.4422L43.4132 28.389L43.0914 29.3358C42.1197 29.0056 41.151 28.661 40.1858 28.3022L40.5343 27.3648ZM46.3155 29.3294L46.6102 28.3738C47.5762 28.6716 48.5449 28.9551 49.5159 29.2243L49.2488 30.1879L48.9817 31.1516C47.9922 30.8773 47.0052 30.5885 46.0209 30.285L46.3155 29.3294ZM52.2024 30.9609L52.4416 29.99C53.422 30.2315 54.4043 30.4585 55.3883 30.6708L55.1773 31.6483L54.9663 32.6258C53.9634 32.4094 52.9623 32.178 51.9632 31.9319L52.2024 30.9609ZM58.1726 32.2493L58.355 31.2661C59.3469 31.4501 60.3401 31.6193 61.3343 31.7738L61.1808 32.7619L61.0273 33.7501C60.0138 33.5926 59.0013 33.4201 57.9902 33.2325L58.1726 32.2493ZM64.207 33.1864L64.3312 32.1942C65.3325 32.3196 66.3344 32.43 67.3367 32.5253L67.2419 33.5209L67.1472 34.5164C66.1252 34.4191 65.1036 34.3065 64.0827 34.1787L64.207 33.1864ZM70.2854 33.7647L70.3504 32.7668C71.3575 32.8324 72.3646 32.8827 73.3712 32.9178L73.3363 33.9172L73.3015 34.9166C72.2747 34.8808 71.2476 34.8295 70.2205 34.7626L70.2854 33.7647ZM76.3882 33.9775L76.3928 32.9775C77.4017 32.9821 78.4098 32.9713 79.4168 32.9451L79.4428 33.9448L79.4688 34.9444C78.4414 34.9712 77.4129 34.9822 76.3837 34.9775L76.3882 33.9775ZM82.4938 33.8185L82.437 32.8201C83.4435 32.7629 84.4484 32.6902 85.4514 32.602L85.5391 33.5981L85.6267 34.5943C84.6031 34.6843 83.5776 34.7585 82.5505 34.8169L82.4938 33.8185ZM88.5771 33.2829L88.4584 32.29C89.4589 32.1704 90.4572 32.0351 91.4528 31.8842L91.6027 32.8729L91.7526 33.8616C90.7362 34.0157 89.7171 34.1538 88.6958 34.2759L88.5771 33.2829ZM94.6146 32.3673L94.4334 31.3839C95.4241 31.2014 96.4117 31.0032 97.396 30.7892L97.6084 31.7664L97.8208 32.7435C96.8157 32.9621 95.8072 33.1645 94.7957 33.3508L94.6146 32.3673ZM100.582 31.0697L100.338 30.0999C101.315 29.8545 102.287 29.5934 103.256 29.3164L103.531 30.2778L103.806 31.2393C102.816 31.5222 101.823 31.789 100.826 32.0396L100.582 31.0697ZM106.453 29.3906L106.147 28.4385C107.105 28.1305 108.058 27.8066 109.007 27.4669L109.344 28.4084L109.681 29.3499C108.712 29.697 107.738 30.0278 106.759 30.3426L106.453 29.3906ZM112.201 27.3324L111.833 26.4025C112.769 26.0323 113.7 25.6463 114.625 25.2445L115.024 26.1617L115.422 27.079C114.477 27.4896 113.525 27.884 112.569 28.2623L112.201 27.3324ZM117.802 24.9001L117.374 23.9965C118.282 23.5658 119.185 23.1193 120.081 22.6572L120.54 23.5461L120.998 24.4349C120.082 24.9072 119.159 25.3635 118.231 25.8037L117.802 24.9001ZM123.231 22.1014L122.744 21.2283C123.62 20.7388 124.491 20.2339 125.354 19.7134L125.87 20.5699L126.386 21.4263C125.504 21.9582 124.615 22.4743 123.719 22.9746L123.231 22.1014ZM128.462 18.9481L127.918 18.1093C128.759 17.5632 129.593 17.0018 130.42 16.4251L130.992 17.2454L131.564 18.0657C130.719 18.655 129.866 19.2287 129.007 19.7869L128.462 18.9481ZM133.469 15.4573L132.87 14.6563C133.674 14.055 134.471 13.4386 135.26 12.8071L135.885 13.5879L136.51 14.3686C135.704 15.0138 134.889 15.6437 134.067 16.2582L133.469 15.4573ZM138.235 11.6433L137.585 10.8834C138.349 10.2294 139.106 9.56066 139.854 8.87707L140.529 9.61536L141.203 10.3537C140.439 11.0519 139.666 11.7351 138.885 12.4032L138.235 11.6433ZM142.743 7.52567L142.045 6.80944C142.765 6.10848 143.476 5.39315 144.178 4.6634L144.899 5.35693L145.619 6.05046C144.902 6.79556 144.176 7.52602 143.441 8.24189L142.743 7.52567ZM146.979 3.126L146.237 2.45555C146.576 2.08052 146.913 1.70195 147.248 1.31984L148 1.97852L148.752 2.63719C148.411 3.02719 148.067 3.41361 147.721 3.79644L146.979 3.126Z" fill="black"/>
</svg>
