<svg width="150" height="35" viewBox="0 0 150 35" fill="none" xmlns="http://www.w3.org/2000/svg">
<path d="M0.296072 33.2682C-0.0962 33.657 -0.09904 34.2902 0.289729 34.6824C0.678497 35.0747 1.31166 35.0776 1.70393 34.6888L1 33.9785L0.296072 33.2682ZM147.934 34.9763C148.485 35.0129 148.961 34.5959 148.998 34.0448L149.594 25.0646C149.631 24.5135 149.214 24.0371 148.663 24.0005C148.112 23.9639 147.635 24.381 147.599 24.932L147.068 32.9144L139.086 32.3841C138.535 32.3475 138.059 32.7645 138.022 33.3156C137.985 33.8666 138.402 34.3431 138.954 34.3797L147.934 34.9763ZM1 33.9785L1.70393 34.6888C2.0643 34.3316 2.42648 33.9774 2.79043 33.6262L2.096 32.9066L1.40157 32.1871C1.03125 32.5445 0.662735 32.9049 0.296072 33.2682L1 33.9785ZM4.32011 30.8165L4.99518 31.5542C5.74239 30.8705 6.49653 30.1988 7.25731 29.5392L6.60221 28.7836L5.94711 28.0281C5.17286 28.6994 4.40541 29.383 3.64504 30.0787L4.32011 30.8165ZM8.93229 26.8174L9.5669 27.5902C10.3501 26.9471 11.1398 26.3164 11.9357 25.698L11.3222 24.9083L10.7087 24.1186C9.89855 24.748 9.09478 25.39 8.29768 26.0445L8.93229 26.8174ZM13.7551 23.0705L14.347 23.8765C15.1633 23.2771 15.9857 22.6903 16.8139 22.1162L16.2442 21.2944L15.6745 20.4725C14.8314 21.057 13.9942 21.6543 13.1633 22.2645L13.7551 23.0705ZM18.7761 19.59L19.3231 20.4272C20.1697 19.874 21.0218 19.3338 21.8792 18.8065L21.3553 17.9547L20.8315 17.1029C19.9585 17.6397 19.0909 18.1897 18.2291 18.7529L18.7761 19.59ZM23.9793 16.3905L24.4794 17.2564C25.3539 16.7513 26.2334 16.2595 27.1177 15.7809L26.6417 14.9014L26.1657 14.022C25.2652 14.5094 24.3696 15.0102 23.4791 15.5245L23.9793 16.3905ZM29.3504 13.4836L29.8017 14.376C30.7027 13.9202 31.6083 13.478 32.518 13.0492L32.0916 12.1447L31.6653 11.2401C30.7388 11.6767 29.8166 12.1272 28.899 12.5913L29.3504 13.4836ZM34.874 10.8807L35.2748 11.7969C36.2005 11.3919 37.1301 11.0008 38.0632 10.6235L37.6884 9.6964L37.3135 8.76932C36.363 9.15367 35.4161 9.55208 34.4733 9.96452L34.874 10.8807ZM40.5343 8.59218L40.8828 9.52949C41.8303 9.17719 42.7811 8.83896 43.7349 8.51485L43.4132 7.56802L43.0914 6.62119C42.1197 6.95141 41.151 7.29598 40.1858 7.65488L40.5343 8.59218ZM46.3155 6.62764L46.6102 7.58325C47.5762 7.28542 48.5449 7.00191 49.5159 6.73278L49.2488 5.76911L48.9817 4.80544C47.9922 5.07969 47.0052 5.36856 46.0209 5.67203L46.3155 6.62764ZM52.2024 4.9961L52.4416 5.96706C53.422 5.72555 54.4043 5.49858 55.3883 5.28619L55.1773 4.3087L54.9663 3.33121C53.9634 3.54768 52.9623 3.779 51.9632 4.02513L52.2024 4.9961ZM58.1726 3.70772L58.355 4.69094C59.3469 4.50695 60.3401 4.33771 61.3343 4.18326L61.1808 3.19511L61.0273 2.20697C60.0138 2.36442 59.0013 2.53694 57.9902 2.72449L58.1726 3.70772ZM64.207 2.77062L64.3312 3.76287C65.3325 3.63748 66.3344 3.52707 67.3367 3.43168L67.2419 2.43618L67.1472 1.44068C66.1252 1.53794 65.1036 1.65052 64.0827 1.77837L64.207 2.77062ZM70.2854 2.19231L70.3504 3.1902C71.3575 3.12465 72.3646 3.0743 73.3712 3.03918L73.3363 2.03979L73.3015 1.0404C72.2747 1.07622 71.2476 1.12757 70.2205 1.19442L70.2854 2.19231ZM76.3882 1.97956L76.3928 2.97955C77.4017 2.97495 78.4098 2.98572 79.4168 3.01191L79.4428 2.01225L79.4688 1.01259C78.4414 0.985869 77.4129 0.974876 76.3837 0.979568L76.3882 1.97956ZM82.4938 2.13852L82.437 3.13691C83.4435 3.19411 84.4484 3.26682 85.4514 3.35508L85.5391 2.35893L85.6267 1.36278C84.6031 1.2727 83.5776 1.1985 82.5505 1.14014L82.4938 2.13852ZM88.5771 2.67409L88.4584 3.66701C89.4589 3.78665 90.4572 3.92193 91.4528 4.07288L91.6027 3.08418L91.7526 2.09548C90.7362 1.94137 89.7171 1.80328 88.6958 1.68116L88.5771 2.67409ZM94.6146 3.5897L94.4334 4.57316C95.4241 4.75564 96.4117 4.95386 97.396 5.16784L97.6084 4.19067L97.8208 3.21349C96.8157 2.99498 95.8072 2.79257 94.7957 2.60625L94.6146 3.5897ZM100.582 4.8873L100.338 5.85715C101.315 6.10252 102.287 6.36368 103.256 6.64065L103.531 5.67919L103.806 4.71774C102.816 4.43482 101.823 4.16807 100.826 3.91746L100.582 4.8873ZM106.453 6.56648L106.147 7.51848C107.105 7.82655 108.058 8.15042 109.007 8.49011L109.344 7.54863L109.681 6.60715C108.712 6.26008 107.738 5.9292 106.759 5.61448L106.453 6.56648ZM112.201 8.62466L111.833 9.55456C112.769 9.92477 113.7 10.3108 114.625 10.7125L115.024 9.7953L115.422 8.87805C114.477 8.46746 113.525 8.07305 112.569 7.69476L112.201 8.62466ZM117.802 11.0569L117.374 11.9605C118.282 12.3913 119.185 12.8377 120.081 13.2998L120.54 12.411L120.998 11.5221C120.082 11.0498 119.159 10.5936 118.231 10.1534L117.802 11.0569ZM123.231 13.8556L122.744 14.7287C123.62 15.2182 124.491 15.7231 125.354 16.2436L125.87 15.3872L126.386 14.5307C125.504 13.9988 124.615 13.4827 123.719 12.9825L123.231 13.8556ZM128.462 17.009L127.918 17.8477C128.759 18.3939 129.593 18.9552 130.42 19.5319L130.992 18.7116L131.564 17.8913C130.719 17.302 129.866 16.7283 129.007 16.1702L128.462 17.009ZM133.469 20.4998L132.87 21.3007C133.674 21.902 134.471 22.5184 135.26 23.1499L135.885 22.3691L136.51 21.5884C135.704 20.9432 134.889 20.3134 134.067 19.6989L133.469 20.4998ZM138.235 24.3137L137.585 25.0736C138.349 25.7276 139.106 26.3964 139.854 27.08L140.529 26.3417L141.203 25.6034C140.439 24.9051 139.666 24.2219 138.885 23.5538L138.235 24.3137ZM142.743 28.4314L142.045 29.1476C142.765 29.8485 143.476 30.5639 144.178 31.2936L144.899 30.6001L145.619 29.9066C144.902 29.1615 144.176 28.431 143.441 27.7151L142.743 28.4314ZM146.979 32.831L146.237 33.5015C146.576 33.8765 146.913 34.2551 147.248 34.6372L148 33.9785L148.752 33.3198C148.411 32.9298 148.067 32.5434 147.721 32.1606L146.979 32.831Z" fill="black"/>
</svg>
