<svg width="16" height="12" viewBox="0 0 16 12" fill="none" xmlns="http://www.w3.org/2000/svg">
<path d="M14.3706 6.71629C14.7662 6.71629 15.0869 6.3956 15.0869 6C15.0869 5.6044 14.7662 5.28371 14.3706 5.28371V6V6.71629ZM0.493322 5.4935C0.213593 5.77323 0.213593 6.22677 0.493322 6.5065L5.05178 11.065C5.33151 11.3447 5.78504 11.3447 6.06477 11.065C6.3445 10.7852 6.3445 10.3317 6.06477 10.052L2.01281 6L6.06477 1.94804C6.3445 1.66831 6.3445 1.21478 6.06477 0.935049C5.78504 0.65532 5.33151 0.65532 5.05178 0.935049L0.493322 5.4935ZM14.3706 6V5.28371L0.999818 5.28371V6V6.71629L14.3706 6.71629V6Z" fill="black"/>
</svg>
