<svg width="21" height="21" viewBox="0 0 21 21" fill="none" xmlns="http://www.w3.org/2000/svg">
<path fill-rule="evenodd" clip-rule="evenodd" d="M3.85193 0.6709C3.86413 0.670901 3.87636 0.670901 3.88864 0.670901L6.09534 0.6709C6.49098 0.670877 6.84699 0.670856 7.14305 0.695442C7.4602 0.72178 7.79699 0.781423 8.12607 0.952368C8.58268 1.18956 8.95498 1.56186 9.19217 2.01847C9.36311 2.34755 9.42276 2.68433 9.44909 3.00149C9.47368 3.29754 9.47366 3.65355 9.47364 4.04918V8.29262C9.47366 8.68825 9.47368 9.04426 9.44909 9.34032C9.42276 9.65747 9.36311 9.99426 9.19217 10.3233C8.95498 10.7799 8.58268 11.1522 8.12607 11.3894C7.79699 11.5604 7.4602 11.62 7.14305 11.6464C6.847 11.6709 6.49099 11.6709 6.09536 11.6709H3.85191C3.45628 11.6709 3.10027 11.6709 2.80422 11.6464C2.48707 11.62 2.15028 11.5604 1.8212 11.3894C1.36459 11.1522 0.992291 10.7799 0.755102 10.3233C0.584158 9.99426 0.524514 9.65747 0.498176 9.34032C0.47359 9.04426 0.473611 8.68824 0.473634 8.29261L0.473636 4.0859C0.473636 4.07363 0.473635 4.06139 0.473634 4.0492C0.473611 3.65356 0.47359 3.29754 0.498176 3.00149C0.524514 2.68433 0.584158 2.34755 0.755102 2.01847C0.992291 1.56186 1.36459 1.18956 1.8212 0.952368C2.15028 0.781423 2.48707 0.72178 2.80422 0.695442C3.10028 0.670856 3.45629 0.670877 3.85193 0.6709ZM2.75115 2.72387C2.74589 2.72578 2.74364 2.72694 2.74315 2.72719C2.65183 2.77463 2.57737 2.84909 2.52993 2.94041C2.52967 2.94091 2.52851 2.94316 2.5266 2.94841C2.52461 2.95389 2.5213 2.96402 2.51735 2.9805C2.50905 3.01517 2.49918 3.07235 2.49132 3.16701C2.47444 3.37022 2.47364 3.642 2.47364 4.0859V8.2559C2.47364 8.6998 2.47444 8.97158 2.49132 9.17479C2.49918 9.26945 2.50905 9.32663 2.51735 9.3613C2.5213 9.37778 2.52461 9.38791 2.5266 9.39339C2.52851 9.39865 2.52967 9.40089 2.52993 9.40139C2.57737 9.49271 2.65183 9.56717 2.74315 9.61461C2.74364 9.61487 2.74589 9.61602 2.75115 9.61794C2.75663 9.61993 2.76676 9.62323 2.78324 9.62718C2.8179 9.63549 2.87508 9.64536 2.96974 9.65322C3.17295 9.6701 3.44473 9.6709 3.88864 9.6709H6.05864C6.50254 9.6709 6.77432 9.6701 6.97753 9.65322C7.07219 9.64536 7.12937 9.63549 7.16403 9.62718C7.18052 9.62323 7.19065 9.61993 7.19612 9.61794C7.20138 9.61602 7.20363 9.61487 7.20412 9.61461C7.29544 9.56717 7.3699 9.49271 7.41734 9.40139C7.4176 9.40089 7.41876 9.39865 7.42067 9.39339C7.42266 9.38791 7.42597 9.37778 7.42992 9.3613C7.43823 9.32663 7.4481 9.26945 7.45596 9.17479C7.47283 8.97158 7.47364 8.6998 7.47364 8.2559V4.0859C7.47364 3.642 7.47283 3.37022 7.45596 3.16701C7.4481 3.07235 7.43823 3.01517 7.42992 2.9805C7.42597 2.96402 7.42266 2.95389 7.42067 2.94841C7.41876 2.94316 7.4176 2.94091 7.41734 2.94041C7.3699 2.84909 7.29544 2.77463 7.20412 2.72719C7.20363 2.72694 7.20138 2.72578 7.19612 2.72387C7.19064 2.72188 7.18052 2.71857 7.16403 2.71462C7.12937 2.70631 7.07219 2.69644 6.97753 2.68858C6.77432 2.6717 6.50254 2.6709 6.05864 2.6709H3.88864C3.44473 2.6709 3.17295 2.6717 2.96974 2.68858C2.87508 2.69644 2.8179 2.70631 2.78324 2.71462C2.76676 2.71857 2.75663 2.72188 2.75115 2.72387ZM14.8519 0.6709H17.0953C17.491 0.670877 17.847 0.670856 18.143 0.695442C18.4602 0.72178 18.797 0.781423 19.1261 0.952368C19.5827 1.18956 19.955 1.56186 20.1922 2.01847C20.3631 2.34755 20.4228 2.68433 20.4491 3.00149C20.4737 3.29755 20.4737 3.65357 20.4736 4.04922V4.29258C20.4737 4.68823 20.4737 5.04425 20.4491 5.34032C20.4228 5.65747 20.3631 5.99426 20.1922 6.32334C19.955 6.77994 19.5827 7.15225 19.1261 7.38943C18.797 7.56038 18.4602 7.62002 18.143 7.64636C17.847 7.67095 17.491 7.67093 17.0953 7.6709H14.8519C14.4563 7.67093 14.1003 7.67095 13.8042 7.64636C13.4871 7.62002 13.1503 7.56038 12.8212 7.38943C12.3646 7.15225 11.9923 6.77995 11.7551 6.32334C11.5842 5.99426 11.5245 5.65747 11.4982 5.34032C11.4736 5.04426 11.4736 4.68825 11.4736 4.29262V4.04918C11.4736 3.65355 11.4736 3.29754 11.4982 3.00149C11.5245 2.68433 11.5842 2.34755 11.7551 2.01847C11.9923 1.56186 12.3646 1.18956 12.8212 0.952368C13.1503 0.781423 13.4871 0.72178 13.8042 0.695442C14.1003 0.670856 14.4563 0.670877 14.8519 0.6709ZM13.7511 2.72387C13.7459 2.72578 13.7436 2.72694 13.7431 2.72719C13.6518 2.77463 13.5774 2.84909 13.5299 2.94041C13.5297 2.94091 13.5285 2.94316 13.5266 2.94841C13.5246 2.95389 13.5213 2.96402 13.5174 2.9805C13.509 3.01517 13.4992 3.07235 13.4913 3.16701C13.4744 3.37022 13.4736 3.642 13.4736 4.0859V4.2559C13.4736 4.6998 13.4744 4.97158 13.4913 5.17479C13.4992 5.26945 13.509 5.32663 13.5174 5.3613C13.5213 5.37778 13.5246 5.38791 13.5266 5.39339C13.5285 5.39865 13.5297 5.40089 13.5299 5.40139C13.5774 5.49271 13.6518 5.56717 13.7431 5.61461C13.7436 5.61487 13.7459 5.61602 13.7511 5.61793C13.7566 5.61993 13.7668 5.62323 13.7832 5.62718C13.8179 5.63549 13.8751 5.64536 13.9697 5.65322C14.173 5.6701 14.4447 5.6709 14.8886 5.6709H17.0586C17.5025 5.6709 17.7743 5.6701 17.9775 5.65322C18.0722 5.64536 18.1294 5.63549 18.164 5.62718C18.1805 5.62323 18.1906 5.61993 18.1961 5.61793C18.2014 5.61602 18.2036 5.61487 18.2041 5.61461C18.2954 5.56717 18.3699 5.49271 18.4173 5.40139C18.4176 5.40089 18.4188 5.39865 18.4207 5.39339C18.4227 5.38791 18.426 5.37778 18.4299 5.3613C18.4382 5.32663 18.4481 5.26945 18.456 5.17479C18.4728 4.97158 18.4736 4.6998 18.4736 4.2559V4.0859C18.4736 3.642 18.4728 3.37022 18.456 3.16701C18.4481 3.07235 18.4382 3.01517 18.4299 2.98051C18.426 2.96402 18.4227 2.95389 18.4207 2.94841C18.4188 2.94316 18.4176 2.94091 18.4173 2.94041C18.3699 2.84909 18.2954 2.77463 18.2041 2.72719C18.2036 2.72694 18.2014 2.72578 18.1961 2.72387C18.1906 2.72188 18.1805 2.71857 18.164 2.71462C18.1294 2.70631 18.0722 2.69644 17.9775 2.68858C17.7743 2.6717 17.5025 2.6709 17.0586 2.6709H14.8886C14.4447 2.6709 14.173 2.6717 13.9697 2.68858C13.8751 2.69644 13.8179 2.70631 13.7832 2.71462C13.7668 2.71857 13.7566 2.72188 13.7511 2.72387ZM14.8519 9.6709H17.0953C17.491 9.67088 17.847 9.67086 18.143 9.69544C18.4602 9.72178 18.797 9.78142 19.1261 9.95237C19.5827 10.1896 19.955 10.5619 20.1922 11.0185C20.3631 11.3475 20.4228 11.6843 20.4491 12.0015C20.4737 12.2975 20.4737 12.6536 20.4736 13.0492V17.2926C20.4737 17.6882 20.4737 18.0443 20.4491 18.3403C20.4228 18.6575 20.3631 18.9943 20.1922 19.3233C19.955 19.7799 19.5827 20.1522 19.1261 20.3894C18.797 20.5604 18.4602 20.62 18.143 20.6464C17.847 20.6709 17.491 20.6709 17.0953 20.6709H14.852C14.4563 20.6709 14.1003 20.6709 13.8042 20.6464C13.4871 20.62 13.1503 20.5604 12.8212 20.3894C12.3646 20.1522 11.9923 19.7799 11.7551 19.3233C11.5842 18.9943 11.5245 18.6575 11.4982 18.3403C11.4736 18.0443 11.4736 17.6883 11.4736 17.2926V13.0492C11.4736 12.6536 11.4736 12.2975 11.4982 12.0015C11.5245 11.6843 11.5842 11.3475 11.7551 11.0185C11.9923 10.5619 12.3646 10.1896 12.8212 9.95237C13.1503 9.78142 13.4871 9.72178 13.8042 9.69544C14.1003 9.67086 14.4563 9.67088 14.8519 9.6709ZM13.7511 11.7239C13.7459 11.7258 13.7436 11.7269 13.7431 11.7272C13.6518 11.7746 13.5774 11.8491 13.5299 11.9404C13.5297 11.9409 13.5285 11.9432 13.5266 11.9484C13.5246 11.9539 13.5213 11.964 13.5174 11.9805C13.509 12.0152 13.4992 12.0723 13.4913 12.167C13.4744 12.3702 13.4736 12.642 13.4736 13.0859V17.2559C13.4736 17.6998 13.4744 17.9716 13.4913 18.1748C13.4992 18.2695 13.509 18.3266 13.5174 18.3613C13.5213 18.3778 13.5246 18.3879 13.5266 18.3934C13.5285 18.3986 13.5297 18.4009 13.5299 18.4014C13.5774 18.4927 13.6518 18.5672 13.7431 18.6146C13.7436 18.6149 13.7459 18.616 13.7511 18.6179C13.7566 18.6199 13.7668 18.6232 13.7832 18.6272C13.8179 18.6355 13.8751 18.6454 13.9697 18.6532C14.173 18.6701 14.4447 18.6709 14.8886 18.6709H17.0586C17.5025 18.6709 17.7743 18.6701 17.9775 18.6532C18.0722 18.6454 18.1294 18.6355 18.164 18.6272C18.1805 18.6232 18.1906 18.6199 18.1961 18.6179C18.2014 18.616 18.2036 18.6149 18.2041 18.6146C18.2954 18.5672 18.3699 18.4927 18.4173 18.4014C18.4176 18.4009 18.4188 18.3986 18.4207 18.3934C18.4227 18.3879 18.426 18.3778 18.4299 18.3613C18.4382 18.3266 18.4481 18.2695 18.456 18.1748C18.4728 17.9716 18.4736 17.6998 18.4736 17.2559V13.0859C18.4736 12.642 18.4728 12.3702 18.456 12.167C18.4481 12.0724 18.4382 12.0152 18.4299 11.9805C18.426 11.964 18.4227 11.9539 18.4207 11.9484C18.4188 11.9432 18.4176 11.9409 18.4173 11.9404C18.3699 11.8491 18.2954 11.7746 18.2041 11.7272C18.2036 11.7269 18.2014 11.7258 18.1961 11.7239C18.1906 11.7219 18.1805 11.7186 18.164 11.7146C18.1294 11.7063 18.0722 11.6964 17.9775 11.6886C17.7743 11.6717 17.5025 11.6709 17.0586 11.6709H14.8886C14.4447 11.6709 14.173 11.6717 13.9697 11.6886C13.8751 11.6964 13.8179 11.7063 13.7832 11.7146C13.7668 11.7186 13.7566 11.7219 13.7511 11.7239ZM3.85191 13.6709H6.09536C6.49099 13.6709 6.847 13.6709 7.14305 13.6954C7.4602 13.7218 7.79699 13.7814 8.12607 13.9524C8.58268 14.1896 8.95498 14.5619 9.19217 15.0185C9.36311 15.3475 9.42276 15.6843 9.44909 16.0015C9.47368 16.2975 9.47366 16.6536 9.47364 17.0492V17.2926C9.47366 17.6883 9.47368 18.0443 9.44909 18.3403C9.42276 18.6575 9.36311 18.9943 9.19217 19.3233C8.95498 19.7799 8.58268 20.1522 8.12607 20.3894C7.79699 20.5604 7.4602 20.62 7.14305 20.6464C6.84699 20.6709 6.49096 20.6709 6.09532 20.6709H3.85195C3.45631 20.6709 3.10028 20.6709 2.80422 20.6464C2.48707 20.62 2.15028 20.5604 1.8212 20.3894C1.36459 20.1522 0.992291 19.7799 0.755102 19.3233C0.584158 18.9943 0.524514 18.6575 0.498176 18.3403C0.47359 18.0443 0.473611 17.6882 0.473634 17.2926V17.0492C0.473611 16.6536 0.47359 16.2975 0.498176 16.0015C0.524514 15.6843 0.584158 15.3475 0.755102 15.0185C0.992291 14.5619 1.36459 14.1896 1.8212 13.9524C2.15028 13.7814 2.48707 13.7218 2.80422 13.6954C3.10027 13.6709 3.45628 13.6709 3.85191 13.6709ZM2.75115 15.7239C2.74589 15.7258 2.74364 15.7269 2.74315 15.7272C2.65183 15.7746 2.57737 15.8491 2.52993 15.9404C2.52967 15.9409 2.52851 15.9432 2.5266 15.9484C2.52461 15.9539 2.5213 15.964 2.51735 15.9805C2.50905 16.0152 2.49918 16.0723 2.49132 16.167C2.47444 16.3702 2.47364 16.642 2.47364 17.0859V17.2559C2.47364 17.6998 2.47444 17.9716 2.49132 18.1748C2.49918 18.2695 2.50905 18.3266 2.51735 18.3613C2.5213 18.3778 2.52461 18.3879 2.5266 18.3934C2.52851 18.3986 2.52967 18.4009 2.52993 18.4014C2.57737 18.4927 2.65183 18.5672 2.74315 18.6146C2.74365 18.6149 2.74589 18.616 2.75115 18.6179C2.75663 18.6199 2.76676 18.6232 2.78324 18.6272C2.8179 18.6355 2.87508 18.6454 2.96974 18.6532C3.17295 18.6701 3.44473 18.6709 3.88864 18.6709H6.05864C6.50254 18.6709 6.77432 18.6701 6.97753 18.6532C7.07219 18.6454 7.12937 18.6355 7.16403 18.6272C7.18052 18.6232 7.19064 18.6199 7.19612 18.6179C7.20138 18.616 7.20363 18.6149 7.20412 18.6146C7.29544 18.5672 7.3699 18.4927 7.41734 18.4014C7.4176 18.4009 7.41876 18.3986 7.42067 18.3934C7.42266 18.3879 7.42597 18.3778 7.42992 18.3613C7.43823 18.3266 7.4481 18.2695 7.45596 18.1748C7.47283 17.9716 7.47364 17.6998 7.47364 17.2559V17.0859C7.47364 16.642 7.47283 16.3702 7.45596 16.167C7.4481 16.0723 7.43823 16.0152 7.42992 15.9805C7.42597 15.964 7.42266 15.9539 7.42067 15.9484C7.41876 15.9432 7.4176 15.9409 7.41734 15.9404C7.3699 15.8491 7.29544 15.7746 7.20412 15.7272C7.20363 15.7269 7.20138 15.7258 7.19612 15.7239C7.19065 15.7219 7.18052 15.7186 7.16403 15.7146C7.12937 15.7063 7.07219 15.6964 6.97753 15.6886C6.77432 15.6717 6.50254 15.6709 6.05864 15.6709H3.88864C3.44473 15.6709 3.17295 15.6717 2.96974 15.6886C2.87508 15.6964 2.8179 15.7063 2.78324 15.7146C2.76676 15.7186 2.75663 15.7219 2.75115 15.7239Z" fill="#796B0B"/>
</svg>
