<svg width="52" height="51" viewBox="0 0 52 51" fill="none" xmlns="http://www.w3.org/2000/svg">
<path d="M28.0221 29.6765C27.8769 30.7088 26.9789 31.5449 26.0269 31.5449C25.0765 31.5449 24.1786 30.7088 24.0318 29.6765L22.1293 16.2418C21.7646 13.6717 23.5187 11.573 26.0269 11.573C28.5368 11.573 30.2909 13.6717 29.9261 16.2418L28.0221 29.6765Z" fill="#FDD43E"/>
<path d="M26.0255 33.6497C24.4294 33.6497 23.1355 34.9436 23.1355 36.5397C23.1355 38.1358 24.4294 39.4297 26.0255 39.4297C27.6216 39.4297 28.9155 38.1358 28.9155 36.5397C28.9155 34.9436 27.6216 33.6497 26.0255 33.6497Z" fill="#FDD43E"/>
<path d="M26.0266 50.2275C12.3926 50.2275 1.29932 39.1342 1.29932 25.5002C1.29932 11.8662 12.3926 0.772949 26.0266 0.772949C39.6621 0.772949 50.7539 11.8662 50.7539 25.5002C50.7539 39.1342 39.6621 50.2275 26.0266 50.2275ZM26.0266 5.64886C15.0817 5.64886 6.17523 14.5538 6.17523 25.5002C6.17523 36.4467 15.0817 45.3516 26.0266 45.3516C36.973 45.3516 45.8795 36.4467 45.8795 25.5002C45.8795 14.5538 36.973 5.64886 26.0266 5.64886Z" fill="#FDD43E"/>
</svg>
