<svg width="25" height="25" viewBox="0 0 25 25" fill="none" xmlns="http://www.w3.org/2000/svg">
<g clip-path="url(#clip0_406_1577)">
<path d="M3.47368 10.0659C3.47368 10.0659 1.97398 10.0659 1.97368 10.0659C1.0499 10.0659 0.983837 11.5659 1.97368 11.5659H3.47365C4.42985 11.5659 4.44705 10.0659 3.47368 10.0659Z" fill="#796B0B"/>
<path d="M22.9734 10.0659H21.4734C20.5307 10.0659 20.4847 11.5659 21.4734 11.5659H22.9734C23.9255 11.5659 23.9487 10.0659 22.9734 10.0659Z" fill="#796B0B"/>
<path d="M6.40093 4.74271C6.66881 4.48031 6.76625 4.04749 6.41992 3.70116C6.41992 3.70116 5.58271 2.86395 5.57911 2.86035C4.90105 2.18228 3.82857 3.23089 4.51855 3.92089C4.51855 3.92089 5.35588 4.75822 5.35936 4.7617C5.69476 5.09708 6.13306 5.00512 6.40093 4.74271Z" fill="#796B0B"/>
<path d="M19.368 2.86026C19.368 2.86026 18.5298 3.6985 18.5272 3.70108C17.8623 4.366 18.8908 5.45857 19.5878 4.76163C19.5878 4.76163 20.4256 3.92376 20.4286 3.92082C21.106 3.2434 20.0592 2.16911 19.368 2.86026Z" fill="#796B0B"/>
<path d="M12.4736 2.53934C12.8486 2.54147 13.2236 2.30232 13.2236 1.8155C13.2236 1.8155 13.2236 0.318992 13.2236 0.315512C13.2236 -0.627411 11.7236 -0.672508 11.7236 0.315504V1.81548C11.7236 2.29379 12.0986 2.53721 12.4736 2.53934Z" fill="#796B0B"/>
<path d="M12.4736 13.8159C12.8878 13.8159 13.2236 13.4801 13.2236 13.0659C13.2236 12.6517 12.8878 12.3159 12.4736 12.3159C12.0594 12.3159 11.7236 12.6517 11.7236 13.0659C11.7236 13.4801 12.0594 13.8159 12.4736 13.8159Z" fill="#796B0B"/>
<path d="M13.2126 4.10711C9.29042 3.69325 5.72363 6.87263 5.72363 10.8157C5.72363 12.412 6.29053 13.9589 7.31592 15.1678C7.91577 15.883 8.32959 16.7443 8.54639 17.7269C8.62183 18.0707 8.92652 18.3157 9.27881 18.3157H15.6685C16.0193 18.3157 16.3232 18.0729 16.4001 17.7309C16.6177 16.7648 17.0571 15.8647 17.6709 15.1271C18.9175 13.6242 19.45 11.6478 19.1314 9.70757C18.6626 6.77459 16.1731 4.41949 13.2126 4.10711ZM16.5166 14.1688C15.8787 14.9356 15.3931 15.8412 15.0928 16.8157H9.85889C9.56519 15.8346 9.0979 14.9579 8.46289 14.2006C7.66382 13.2591 7.22364 12.0568 7.22363 10.8158C7.22362 8.41924 9.03303 6.15577 11.396 5.70226C13.407 5.3163 15.5877 6.1553 16.7834 7.82609C17.2333 8.45464 17.529 9.18458 17.6511 9.94744C17.9031 11.4841 17.5002 12.9833 16.5166 14.1688Z" fill="#796B0B"/>
<path d="M12.4736 7.81592C12.0591 7.81592 11.7236 8.15173 11.7236 8.56592V10.8159C11.7236 11.2301 12.0591 11.5659 12.4736 11.5659C12.8882 11.5659 13.2236 11.2301 13.2236 10.8159V8.56592C13.2236 8.15173 12.8882 7.81592 12.4736 7.81592Z" fill="#796B0B"/>
<path d="M15.4736 19.0659H9.47363C9.05909 19.0659 8.72363 19.4017 8.72363 19.8159V21.3159C8.72363 22.5566 9.73291 23.5659 10.9736 23.5659H13.9736C15.2144 23.5659 16.2236 22.5566 16.2236 21.3159V19.8159C16.2236 19.4017 15.8882 19.0659 15.4736 19.0659ZM13.9736 22.0659H10.9736C10.5598 22.0659 10.2236 21.7294 10.2236 21.3159V20.5659H14.7236V21.3159C14.7236 21.7294 14.3875 22.0659 13.9736 22.0659Z" fill="#796B0B"/>
</g>
<defs>
<clipPath id="clip0_406_1577">
<rect width="24" height="24" fill="white" transform="translate(0.473633 0.0131836)"/>
</clipPath>
</defs>
</svg>
