<svg width="21" height="21" viewBox="0 0 21 21" fill="none" xmlns="http://www.w3.org/2000/svg">
<path d="M11.7916 5.66607C11.1114 5.66607 10.5163 6.26124 10.5163 6.94142C10.5163 7.62161 11.1114 8.21677 11.7916 8.21677C12.4718 8.21677 13.067 7.62161 13.067 6.94142C13.067 6.26124 12.4718 5.66607 11.7916 5.66607ZM16.4679 2.26514H4.56462C3.11922 2.26514 2.01392 3.37044 2.01392 4.81584V16.7191C2.01392 18.1645 3.11922 19.2698 4.56462 19.2698H16.4679C17.9133 19.2698 19.0186 18.1645 19.0186 16.7191V4.81584C19.0186 3.37044 17.9133 2.26514 16.4679 2.26514ZM17.3181 12.3829L15.7027 10.7675C14.6824 9.83222 13.067 9.83222 12.1317 10.7675L11.3665 11.5327L8.90081 9.06701C7.88053 8.13175 6.26509 8.13175 5.32983 9.06701L3.71438 10.6825V4.81584C3.71438 4.3057 4.05448 3.9656 4.56462 3.9656H16.4679C16.978 3.9656 17.3181 4.3057 17.3181 4.81584V12.3829Z" fill="#796B0B"/>
</svg>
