<svg width="74" height="74" viewBox="0 0 74 74" fill="none" xmlns="http://www.w3.org/2000/svg">
<g clip-path="url(#clip0_426_686)">
<path d="M15.8078 31.0907C13.9919 31.0907 12.7812 29.8801 12.7812 28.0641C12.7812 16.2604 22.1637 6.87793 33.9674 6.87793C43.0472 6.87793 51.219 12.9311 54.2456 21.7083C54.5483 23.2215 53.943 25.0375 52.127 25.3402C50.6137 25.9455 48.7977 25.0375 48.1924 23.5242C46.3765 17.1684 40.6259 12.9311 33.9674 12.9311C25.493 12.9311 18.8344 19.5896 18.8344 28.0641C18.8344 29.8801 17.6238 31.0907 15.8078 31.0907Z" fill="#676767"/>
<path d="M55.1536 55.3026C53.3376 55.3026 52.127 54.0919 52.127 52.276C52.127 50.46 53.3376 49.2494 55.1536 49.2494C61.8121 49.2494 67.26 43.8015 67.26 37.143C67.26 30.4845 61.8121 25.0366 55.1536 25.0366C54.2456 25.0366 53.035 25.0366 52.127 25.3393C50.6137 25.6419 48.7977 24.7339 48.4951 23.2206C48.1924 21.7073 49.1004 19.8914 50.6137 19.5887C52.127 19.2861 53.6403 18.9834 55.1536 18.9834C65.1414 18.9834 73.3132 27.1552 73.3132 37.143C73.3132 47.1307 65.1414 55.3026 55.1536 55.3026ZM24.8876 55.3026H15.8078C13.9919 55.3026 12.7812 54.0919 12.7812 52.276C12.7812 50.46 13.9919 49.2494 15.8078 49.2494H24.8876C26.7036 49.2494 27.9142 50.46 27.9142 52.276C27.9142 54.0919 26.7036 55.3026 24.8876 55.3026Z" fill="#676767"/>
<path d="M55.1535 55.3031H49.1003C47.2844 55.3031 46.0737 54.0924 46.0737 52.2765C46.0737 50.4605 47.2844 49.2499 49.1003 49.2499H55.1535C56.9695 49.2499 58.1801 50.4605 58.1801 52.2765C58.1801 54.0924 56.9695 55.3031 55.1535 55.3031ZM15.8078 55.3031C7.33332 55.3031 0.674805 48.6446 0.674805 40.1701C0.674805 31.6956 7.33332 25.0371 15.8078 25.0371C17.6237 25.0371 18.8344 26.2477 18.8344 28.0637C18.8344 29.8797 17.6237 31.0903 15.8078 31.0903C10.6626 31.0903 6.728 35.0249 6.728 40.1701C6.728 45.3153 10.6626 49.2499 15.8078 49.2499C17.6237 49.2499 18.8344 50.4605 18.8344 52.2765C18.8344 54.0924 17.6237 55.3031 15.8078 55.3031ZM36.994 67.4095C35.178 67.4095 33.9674 66.1988 33.9674 64.3829V34.1169C33.9674 32.3009 35.178 31.0903 36.994 31.0903C38.8099 31.0903 40.0206 32.3009 40.0206 34.1169V64.3829C40.0206 66.1988 38.8099 67.4095 36.994 67.4095Z" fill="#676767"/>
<path d="M27.9138 46.2228C27.0058 46.2228 26.4005 45.9202 25.7952 45.3148C24.5845 44.1042 24.5845 42.2882 25.7952 41.0776L34.875 31.9978C36.0856 30.7872 37.9016 30.7872 39.1122 31.9978C40.3228 33.2085 40.3228 35.0244 39.1122 36.2351L30.0324 45.3148C29.4271 45.9202 28.8218 46.2228 27.9138 46.2228Z" fill="#676767"/>
<path d="M46.0737 46.2228C45.1657 46.2228 44.5604 45.9202 43.9551 45.3148L34.8753 36.2351C33.6646 35.0244 33.6646 33.2085 34.8753 31.9978C36.0859 30.7872 37.9019 30.7872 39.1125 31.9978L48.1923 41.0776C49.4029 42.2882 49.4029 44.1042 48.1923 45.3148C47.587 45.9202 46.9816 46.2228 46.0737 46.2228Z" fill="#676767"/>
</g>
<defs>
<clipPath id="clip0_426_686">
<rect width="72.6383" height="72.6383" fill="white" transform="translate(0.674805 0.824219)"/>
</clipPath>
</defs>
</svg>
