<svg width="25" height="25" viewBox="0 0 25 25" fill="none" xmlns="http://www.w3.org/2000/svg">
<path fill-rule="evenodd" clip-rule="evenodd" d="M7.47363 8.04004C7.47363 5.27862 9.71221 3.04004 12.4736 3.04004C15.2351 3.04004 17.4736 5.27862 17.4736 8.04004C17.4736 10.8015 15.2351 13.04 12.4736 13.04C9.71221 13.04 7.47363 10.8015 7.47363 8.04004ZM12.4736 5.04004C10.8168 5.04004 9.47363 6.38318 9.47363 8.04004C9.47363 9.69689 10.8168 11.04 12.4736 11.04C14.1305 11.04 15.4736 9.69689 15.4736 8.04004C15.4736 6.38318 14.1305 5.04004 12.4736 5.04004Z" fill="#796B0B"/>
<path d="M6.76008 5.99814C7.28922 5.83994 7.58993 5.28274 7.43173 4.75359C7.27353 4.22445 6.71633 3.92374 6.18719 4.08194C4.54355 4.57335 3.47363 6.23244 3.47363 8.04004C3.47363 9.84764 4.54355 11.5067 6.18719 11.9981C6.71633 12.1563 7.27353 11.8556 7.43173 11.3265C7.58993 10.7973 7.28922 10.2401 6.76008 10.0819C6.10342 9.88562 5.47363 9.11914 5.47363 8.04004C5.47363 6.96093 6.10342 6.19446 6.76008 5.99814Z" fill="#796B0B"/>
<path d="M18.7601 4.08194C18.2309 3.92374 17.6737 4.22445 17.5155 4.75359C17.3573 5.28274 17.658 5.83994 18.1872 5.99814C18.8438 6.19446 19.4736 6.96093 19.4736 8.04004C19.4736 9.11914 18.8438 9.88562 18.1872 10.0819C17.658 10.2401 17.3573 10.7973 17.5155 11.3265C17.6737 11.8556 18.2309 12.1563 18.7601 11.9981C20.4037 11.5067 21.4736 9.84764 21.4736 8.04004C21.4736 6.23244 20.4037 4.57335 18.7601 4.08194Z" fill="#796B0B"/>
<path fill-rule="evenodd" clip-rule="evenodd" d="M12.4736 14.04C10.4798 14.04 8.56907 14.2943 7.11805 14.9386C5.6388 15.5955 4.47363 16.7542 4.47363 18.54C4.47363 19.0067 4.55887 19.5379 4.87635 20.0443C5.1938 20.5507 5.68149 20.9339 6.31144 21.2189C7.52051 21.7659 9.45754 22.04 12.4736 22.04C15.4897 22.04 17.4268 21.7659 18.6358 21.2189C19.2658 20.9339 19.7535 20.5507 20.0709 20.0443C20.3884 19.5379 20.4736 19.0067 20.4736 18.54C20.4736 16.7542 19.3085 15.5955 17.8292 14.9386C16.3782 14.2943 14.4675 14.04 12.4736 14.04ZM6.47363 18.54C6.47363 17.8259 6.87547 17.2346 7.92972 16.7665C9.0122 16.2858 10.6015 16.04 12.4736 16.04C14.3458 16.04 15.9351 16.2858 17.0175 16.7665C18.0718 17.2346 18.4736 17.8259 18.4736 18.54C18.4736 18.7637 18.4339 18.8902 18.3764 18.982C18.3188 19.0738 18.1815 19.2293 17.8114 19.3967C17.0205 19.7545 15.4575 20.04 12.4736 20.04C9.48972 20.04 7.92676 19.7545 7.13582 19.3967C6.76577 19.2293 6.62847 19.0738 6.57091 18.982C6.51339 18.8902 6.47363 18.7637 6.47363 18.54Z" fill="#796B0B"/>
<path d="M19.5779 13.5955C19.8234 13.1008 20.4234 12.8988 20.9182 13.1443C22.4121 13.8856 23.4736 15.1662 23.4736 17.04C23.4736 17.5923 23.0259 18.04 22.4736 18.04C21.9213 18.04 21.4736 17.5923 21.4736 17.04C21.4736 16.0858 20.9986 15.4169 20.0291 14.9358C19.5344 14.6903 19.3324 14.0902 19.5779 13.5955Z" fill="#796B0B"/>
<path d="M4.91815 14.9358C5.41287 14.6903 5.6149 14.0902 5.3694 13.5955C5.1239 13.1008 4.52383 12.8988 4.02911 13.1443C2.53521 13.8856 1.47363 15.1662 1.47363 17.04C1.47363 17.5923 1.92135 18.04 2.47363 18.04C3.02592 18.04 3.47363 17.5923 3.47363 17.04C3.47363 16.0858 3.94867 15.4169 4.91815 14.9358Z" fill="#796B0B"/>
</svg>
